<svg width="38" height="38" viewBox="0 0 38 38" xmlns="http://www.w3.org/2000/svg">
    <g fill="none" fill-rule="evenodd">
        <circle fill="#FF6F6F" opacity=".5" cx="19" cy="19" r="19"/>
        <circle fill="#FFF" cx="18.537" cy="18.537" r="14.829"/>
        <path d="M24.955 24.705a6.902 6.902 0 0 0-6.402-4.315c-2.876 0-5.404 1.702-6.44 4.337-.177.451.025.97.453 1.157a.802.802 0 0 0 .32.067c.329 0 .64-.205.774-.545.776-1.973 2.696-3.246 4.893-3.246a5.228 5.228 0 0 1 4.865 3.248c.183.448.676.655 1.1.46.425-.194.621-.714.437-1.163z" fill="#3A4A66"/>
    </g>
</svg>
