<svg width="38" height="38" viewBox="0 0 38 38" xmlns="http://www.w3.org/2000/svg">
    <g fill="none" fill-rule="evenodd">
        <circle fill="#FF6F6F" opacity=".5" cx="19" cy="19" r="19"/>
        <circle fill="#FFF" cx="18.537" cy="18.537" r="14.829"/>
        <g fill="#3A4A66" fill-rule="nonzero" stroke="#344B68">
            <path d="M28.82 11.979c.25 0 .438-.057.561-.17a.59.59 0 0 0 .186-.458.535.535 0 0 0-.186-.434c-.123-.104-.31-.155-.562-.155h-4.234l3.841-4.573c.299-.35.497-.602.595-.759.098-.156.148-.366.148-.627 0-.55-.295-.824-.885-.824h-4.55c-.248 0-.435.057-.56.171a.58.58 0 0 0-.188.45c0 .179.062.323.188.432.125.109.312.163.56.163h3.53l-4.11 4.917-.228.27-.062.075c-.059.07-.106.131-.143.182a.92.92 0 0 0-.117.215.7.7 0 0 0-.044.251c0 .266.09.478.267.636.179.158.444.238.797.238h5.195zM35.1 8.979c.157 0 .274-.036.35-.106a.369.369 0 0 0 .117-.287.334.334 0 0 0-.116-.27c-.077-.066-.194-.098-.351-.098h-2.647l2.401-2.858c.187-.218.31-.376.372-.474a.731.731 0 0 0 .092-.392c0-.344-.184-.515-.553-.515h-2.844c-.155 0-.271.035-.35.107a.363.363 0 0 0-.117.281c0 .112.039.202.117.27.079.068.195.102.35.102h2.207l-2.569 3.073-.143.169-.039.046a2.578 2.578 0 0 0-.089.114.575.575 0 0 0-.073.135.437.437 0 0 0-.027.157c0 .166.055.298.167.397.111.1.277.149.498.149H35.1z"/>
        </g>
        <path d="M16.012 18.062a3.724 3.724 0 0 1-3.454 2.328c-1.552 0-2.916-.918-3.474-2.34a.487.487 0 0 1 .244-.623.433.433 0 0 1 .173-.037c.177 0 .345.11.417.295.419 1.064 1.455 1.75 2.64 1.75a2.82 2.82 0 0 0 2.624-1.751.443.443 0 0 1 .594-.25.488.488 0 0 1 .236.628zM28.012 18.062a3.724 3.724 0 0 1-3.454 2.328c-1.552 0-2.916-.918-3.474-2.34a.487.487 0 0 1 .244-.623.433.433 0 0 1 .173-.037c.177 0 .345.11.417.295.419 1.064 1.455 1.75 2.64 1.75a2.82 2.82 0 0 0 2.624-1.751.443.443 0 0 1 .594-.25.488.488 0 0 1 .236.628z" stroke="#344B68" fill="#3A4A66"/>
    </g>
</svg>
