<svg id="Component_10_1" data-name="Component 10 – 1" xmlns="http://www.w3.org/2000/svg" width="58" height="40" viewBox="0 0 58 40">
  <rect id="Rectangle_6" data-name="Rectangle 6" width="58" height="40" rx="6" fill="#f4f6fa"/>
  <g id="file" transform="translate(14 4.5)">
    <g id="Group_6" data-name="Group 6">
      <g id="Group_5" data-name="Group 5">
        <g id="Group_4" data-name="Group 4">
          <g id="Group_3" data-name="Group 3">
            <g id="Group_2" data-name="Group 2">
              <path id="Path_6" data-name="Path 6" d="M24.675,9.162l-5.55-6.25A1.252,1.252,0,0,0,18.2,2.5H8.2A3.163,3.163,0,0,0,5,5.625v18.75A3.163,3.163,0,0,0,8.2,27.5H21.8A3.163,3.163,0,0,0,25,24.375V10A1.25,1.25,0,0,0,24.675,9.162ZM17.5,5l4.675,5h-3.75A.988.988,0,0,1,17.5,8.937Z" fill="#3a4a66"/>
            </g>
          </g>
        </g>
      </g>
    </g>
  </g>
</svg>
