<svg width="38" height="38" viewBox="0 0 38 38" xmlns="http://www.w3.org/2000/svg">
    <g fill="none" fill-rule="evenodd">
        <g>
            <circle fill="#0AF" opacity=".2" cx="19" cy="19" r="19"/>
            <circle fill="#FFF" cx="18.537" cy="18.537" r="14.829"/>
            <path d="M24.955 21.636a6.902 6.902 0 0 1-6.402 4.315c-2.876 0-5.404-1.702-6.44-4.337-.177-.45.025-.969.453-1.156a.802.802 0 0 1 .32-.068c.329 0 .64.205.774.546.776 1.972 2.696 3.246 4.893 3.246a5.228 5.228 0 0 0 4.865-3.248c.183-.449.676-.656 1.1-.461.425.194.621.715.437 1.163z" fill="#3A4A66"/>
        </g>
        <path d="M15.966 19.162c-.08 0-.159-.02-.23-.058l-2.556-1.405-2.555 1.405a.481.481 0 0 1-.529-.041.539.539 0 0 1-.198-.517l.501-2.962-2.064-2.104a.545.545 0 0 1-.125-.526c.059-.19.216-.33.406-.358l2.856-.436 1.257-2.699a.5.5 0 0 1 .451-.297.5.5 0 0 1 .451.297l1.273 2.693 2.856.437c.19.028.347.167.406.358a.545.545 0 0 1-.125.526l-2.065 2.104.501 2.962a.539.539 0 0 1-.2.526c-.09.067-.2.1-.31.095zM26.966 19.162c-.08 0-.159-.02-.23-.058l-2.556-1.405-2.555 1.405a.481.481 0 0 1-.529-.041.539.539 0 0 1-.198-.517l.501-2.962-2.064-2.104a.545.545 0 0 1-.125-.526c.059-.19.216-.33.406-.358l2.856-.436 1.257-2.699a.5.5 0 0 1 .451-.297.5.5 0 0 1 .451.297l1.273 2.693 2.856.437c.19.028.347.167.406.358a.545.545 0 0 1-.125.526l-2.065 2.104.501 2.962a.539.539 0 0 1-.2.526c-.09.067-.2.1-.31.095z" fill="#384A66"/>
    </g>
</svg>
