<svg width="58" height="40" viewBox="0 0 58 40" xmlns="http://www.w3.org/2000/svg" xmlns:xlink="http://www.w3.org/1999/xlink">
    <defs>
        <rect id="a" x="0" y="0" width="58" height="40" rx="6"/>
    </defs>
    <g fill="none" fill-rule="evenodd">
        <mask id="b" fill="#fff">
            <use xlink:href="#a"/>
        </mask>
        <use fill="#E6E8ED" xlink:href="#a"/>
        <g mask="url(#b)">
            <g transform="translate(9.32 1.342)">
                <path d="M3.415 16.748 16.843 3.374a4.8 4.8 0 0 1 6.774 0l6.949 6.92a4.8 4.8 0 0 1 0 6.802L17.138 30.471a4.8 4.8 0 0 1-6.775 0l-6.948-6.92a4.8 4.8 0 0 1 0-6.803z" fill="#969FAF" opacity=".2"/>
                <path d="m7.825 11.708 18.36-4.9a4.8 4.8 0 0 1 5.872 3.39l2.54 9.439a4.8 4.8 0 0 1-3.398 5.884l-18.36 4.9a4.8 4.8 0 0 1-5.872-3.39l-2.54-9.439a4.8 4.8 0 0 1 3.398-5.884z" fill="#969FAF"/>
                <rect fill="#F8F9FC" x="7.011" y="11.687" width="28.61" height="19.368" rx="4.8"/>
                <path d="M29.414 17.945a2.81 2.81 0 0 0-2.168-.865 3.748 3.748 0 0 0-2.489.932l.14-.752h-1.923l-1.077 5.77a1.44 1.44 0 0 1-.43.068 1.18 1.18 0 0 1-.884-.315 1.147 1.147 0 0 1-.321-.837 1.74 1.74 0 0 1 .026-.324l.82-4.413h-1.942l-.012.057-.915 4.883c-.229.292-.506.54-.819.734-.281.186-.606.29-.941.303a1.176 1.176 0 0 1-.883-.318 1.121 1.121 0 0 1-.321-.836c-.002-.11.007-.219.027-.326l.818-4.413h-1.94l-.86 4.6c-.046.23-.068.465-.068.7a2.272 2.272 0 0 0 .66 1.704 2.425 2.425 0 0 0 1.764.627c.41-.007.813-.1 1.185-.274a3.54 3.54 0 0 0 .727-.44 7.87 7.87 0 0 0 .713-.626.88.88 0 0 1 .12-.1c.11.276.276.525.488.731.482.44 1.116.666 1.762.628.313-.005.624-.062.92-.17l-.635 3.403h1.922l.767-4.101c.498.612 1.21.92 2.144.914a3.952 3.952 0 0 0 1.965-.517 4.896 4.896 0 0 0 1.572-1.43 4.952 4.952 0 0 0 .837-1.96 4.2 4.2 0 0 0 .076-.813 3.14 3.14 0 0 0-.825-2.224zm-1.2 3.041a2.625 2.625 0 0 1-.894 1.54 2.447 2.447 0 0 1-1.62.627c-.383.01-.761-.101-1.08-.32a1.543 1.543 0 0 1-.604-.864l.364-1.936a2.63 2.63 0 0 1 .926-.87 2.449 2.449 0 0 1 1.203-.329c.467-.02.922.153 1.263.48.324.321.5.767.488 1.229-.001.149-.016.297-.045.443z" fill="#969FAF" fill-rule="nonzero" opacity=".696"/>
            </g>
        </g>
    </g>
</svg>
