<svg width="157" height="40" viewBox="0 0 157 40" xmlns="http://www.w3.org/2000/svg">
    <defs>
        <linearGradient x1=".002%" y1="50.014%" x2="100.09%" y2="50.014%" id="w3rq0h2x9a">
            <stop stop-color="#FB8246" offset="0%"/>
            <stop stop-color="#FEDD2A" offset="35%"/>
            <stop stop-color="#57C64C" offset="66%"/>
            <stop stop-color="#5AACFF" offset="100%"/>
        </linearGradient>
    </defs>
    <g fill-rule="nonzero" fill="none">
        <path d="m49.18 20.081 2.18-2.71a5.87 5.87 0 0 0 1.88 1.43 5.3 5.3 0 0 0 2.29.52 3 3 0 0 0 1.76-.45 1.36 1.36 0 0 0 .64-1.18 1.46 1.46 0 0 0-.63-1.23 5.84 5.84 0 0 0-2.18-.78c-3.56-.73-5.34-2.49-5.34-5.26a4.23 4.23 0 0 1 1.64-3.42 6.51 6.51 0 0 1 4.28-1.37 8.55 8.55 0 0 1 3.17.61 9.06 9.06 0 0 1 2.66 1.63l-2.09 2.72a5.43 5.43 0 0 0-3.36-1.47 2.63 2.63 0 0 0-1.47.37 1.14 1.14 0 0 0-.57 1c0 .95.87 1.61 2.61 2a8.39 8.39 0 0 1 4.19 1.89 4.55 4.55 0 0 1 1.36 3.4 4.53 4.53 0 0 1-1.73 3.65 7 7 0 0 1-4.61 1.42 9.93 9.93 0 0 1-3.8-.72 7.45 7.45 0 0 1-2.88-2.05zM69 11.751v10.67h-4.4V.001H69v7.82a5.91 5.91 0 0 1 2-1.59 5.74 5.74 0 0 1 2.54-.6 6.33 6.33 0 0 1 4.73 1.86 6.56 6.56 0 0 1 1.83 4.83v10.1h-4.33v-9.67a3.22 3.22 0 0 0-.9-2.33 3.11 3.11 0 0 0-2.37-.93 3.55 3.55 0 0 0-2 .66 5.17 5.17 0 0 0-1.5 1.6zM90.43 5.631a7.17 7.17 0 0 1 5.2 2v-1.63h4.3v16.4h-4.3v-1.62a7.16 7.16 0 0 1-5.2 2 7.81 7.81 0 0 1-4.2-1.16 8.27 8.27 0 0 1-2.94-3.13 9 9 0 0 1-1.05-4.29 9 9 0 0 1 1.05-4.29 8.2 8.2 0 0 1 2.94-3.11 7.82 7.82 0 0 1 4.2-1.17zm.92 13.37a4.73 4.73 0 0 0 2.56-.72 4.57 4.57 0 0 0 1.72-1.9v-4.28a4.57 4.57 0 0 0-1.72-1.9 4.73 4.73 0 0 0-2.56-.71 4.65 4.65 0 0 0-4.74 4.73 4.66 4.66 0 0 0 4.74 4.78zM112.74 22.421l-4.29-7.17h-1.35v7.17h-4.36V.001h4.36v11.51h1.41l3.49-5.51h4.91l-4.91 7.4 5.53 9zM45.73 6.904a6.12 6.12 0 0 0-4.64-1.87 6.37 6.37 0 0 0-3.09.79 6.71 6.71 0 0 0-2.35 2.06 7 7 0 0 0-.77-1 6.12 6.12 0 0 0-4.65-1.87 6.33 6.33 0 0 0-3.08.79A6.68 6.68 0 0 0 25 7.694a6.32 6.32 0 0 0-.65-.82 6.16 6.16 0 0 0-4.65-1.87 6.4 6.4 0 0 0-3.09.79 6.61 6.61 0 0 0-2.41 2.11 5.92 5.92 0 0 0-2.2-2.09 6.49 6.49 0 0 0-3.13-.75 5.5 5.5 0 0 0-2.49.59 6.05 6.05 0 0 0-2 1.58v-1.82H0v16.51h4.38v-10.69a5.82 5.82 0 0 1 1.56-1.67 3.23 3.23 0 0 1 1.92-.66 2.77 2.77 0 0 1 2.16.92 3.31 3.31 0 0 1 .83 2.33v9.77h4.39v-10.64a6.09 6.09 0 0 1 1.58-1.72 3.28 3.28 0 0 1 1.93-.66 2.75 2.75 0 0 1 2.18.94 3.4 3.4 0 0 1 .82 2.31v9.77h4.38V10.904a5.8 5.8 0 0 1 1.32-1.34 3.26 3.26 0 0 1 1.85-.66 2.73 2.73 0 0 1 2.17.94 3.35 3.35 0 0 1 .82 2.31v9.77h4.39V11.254a5.9 5.9 0 0 1 1.56-1.69 3.28 3.28 0 0 1 1.93-.66 2.75 2.75 0 0 1 2.18.94 3.4 3.4 0 0 1 .82 2.31v9.77h4.38v-10.21a6.65 6.65 0 0 0-1.82-4.81z" fill="#03657C"/>
        <path d="M22 4.311a2.43 2.43 0 0 1-.74-1.79A2.41 2.41 0 0 1 22 .731a2.68 2.68 0 0 1 3.68 0 2.38 2.38 0 0 1 .74 1.79 2.39 2.39 0 0 1-.74 1.79 2.68 2.68 0 0 1-3.68 0z" fill="#03657C"/>
        <path d="M154.26 7.371a6.3 6.3 0 0 0-4.79-1.88 8.42 8.42 0 0 0-5.51 2l.31-1.63-4.27.04-2.38 12.5a3.24 3.24 0 0 1-.95.15 2.68 2.68 0 0 1-2-.69 2.46 2.46 0 0 1-.71-1.81 3.84 3.84 0 0 1 .06-.71l1.83-9.55h-4.3v.12l-2 10.54a7 7 0 0 1-1.85 1.59 4.07 4.07 0 0 1-2.09.66 2.67 2.67 0 0 1-2-.69 2.42 2.42 0 0 1-.71-1.81 3.84 3.84 0 0 1 .06-.71l1.88-9.49h-4.29l-1.91 10a7.91 7.91 0 0 0-.15 1.52 4.92 4.92 0 0 0 1.51 3.64 5.39 5.39 0 0 0 3.91 1.36 6.46 6.46 0 0 0 2.62-.59 7.92 7.92 0 0 0 1.61-.95 17 17 0 0 0 1.57-1.36l.27-.22a4.32 4.32 0 0 0 1.02 1.6 5.36 5.36 0 0 0 3.9 1.36 6.08 6.08 0 0 0 2-.36l-1.4 7.37h4.25l1.7-8.88a5.76 5.76 0 0 0 4.74 2 9 9 0 0 0 4.36-1.16 10.76 10.76 0 0 0 3.48-3.1 10.64 10.64 0 0 0 1.85-4.24 9.16 9.16 0 0 0 .17-1.77 6.7 6.7 0 0 0-1.79-4.85zm-2.65 6.63a5.71 5.71 0 0 1-2 3.34 5.42 5.42 0 0 1-3.58 1.35 4 4 0 0 1-2.4-.69 3.33 3.33 0 0 1-1.33-1.87l.8-4.19a5.76 5.76 0 0 1 2-1.88 5.57 5.57 0 0 1 2.67-.72 3.87 3.87 0 0 1 2.79 1 3.59 3.59 0 0 1 1.14 2.66 5.17 5.17 0 0 1-.09 1z" fill="url(#w3rq0h2x9a)"/>
        <g opacity=".7" fill="#3A4A66">
            <path d="M2.833 37.994H0v-6.99h2.528c.55-.031 1.09.15 1.505.501.374.356.575.85.552 1.357.01.32-.085.636-.27.901-.17.245-.418.429-.706.525a1.712 1.712 0 0 1 1.387 1.722 1.896 1.896 0 0 1-.587 1.482 2.219 2.219 0 0 1-1.576.502zm.518-4.3c.44-.441.44-1.142 0-1.584a1.198 1.198 0 0 0-.823-.286H.999v2.156h1.493c.314.02.623-.083.859-.285zm.376 3.16a1.304 1.304 0 0 0 0-1.756 1.305 1.305 0 0 0-.917-.331H1v2.418h1.786c.327.002.642-.116.882-.331h.059zM6.103 39.947l.931-2.135L5 33h.954l1.552 3.735L9.046 33H10l-2.943 7zM17.272 35.785h-.534l-1.933-3.22V38H14v-7h.775L17 34.746 19.235 31H20v7h-.795v-5.436zM22 31.576a.562.562 0 0 1 .153-.41.45.45 0 0 1 .702.004.642.642 0 0 1 0 .812.45.45 0 0 1-.702.004.562.562 0 0 1-.153-.41zM22.125 38v-5.017h.765V38h-.765zM24.914 34.757v3.232H24v-4.87h.914v.732c.175-.245.405-.451.674-.603.262-.16.568-.247.88-.248.37-.003.734.09 1.051.27.3.175.538.43.686.732.2-.295.47-.542.788-.722a2.091 2.091 0 0 1 2.457.27c.372.384.57.891.549 1.411V38h-.903v-2.996a1.22 1.22 0 0 0-.343-.883 1.106 1.106 0 0 0-.868-.345c-.294 0-.578.1-.8.28-.257.2-.473.44-.64.711.005.065.005.13 0 .194V38h-.914v-2.996a1.26 1.26 0 0 0-.332-.883 1.177 1.177 0 0 0-.868-.345c-.292 0-.574.096-.8.27a2.46 2.46 0 0 0-.617.71zM33 37.198l.518-.557c.178.193.398.35.645.462.253.11.528.167.807.169.276.013.55-.053.783-.19a.595.595 0 0 0 .288-.515.614.614 0 0 0-.276-.505 2.442 2.442 0 0 0-.887-.305c-1.152-.2-1.694-.673-1.694-1.43-.006-.369.177-.72.496-.946.37-.265.832-.4 1.301-.379a2.558 2.558 0 0 1 1.751.642l-.495.567a1.9 1.9 0 0 0-1.152-.483c-.24-.01-.478.048-.68.168a.508.508 0 0 0-.276.442.568.568 0 0 0 .276.462c.242.152.517.253.807.295.492.064.957.245 1.348.526.295.263.454.628.439 1.004-.015.377-.204.73-.52.973a2.286 2.286 0 0 1-1.417.4 3.132 3.132 0 0 1-1.152-.211 2.383 2.383 0 0 1-.91-.589zM38.772 34.703v3.286H38V31h.772v2.793c.176-.25.392-.461.636-.624.242-.164.519-.251.802-.252.482-.021.95.185 1.29.57.337.389.517.915.499 1.457V38h-.782v-3.002a1.358 1.358 0 0 0-.323-.93 1.062 1.062 0 0 0-.831-.362 1.07 1.07 0 0 0-.724.285c-.223.2-.415.44-.567.712zM46.447 33a2.213 2.213 0 0 1 1.702.727v-.61H49v4.766h-.851v-.61a2.213 2.213 0 0 1-1.702.726 2.44 2.44 0 0 1-2.128-1.263A2.483 2.483 0 0 1 44 35.495 2.462 2.462 0 0 1 46.447 33zm.138 4.21c.327.004.647-.084.926-.253.27-.168.49-.404.638-.684v-1.557a1.69 1.69 0 0 0-.638-.694 1.76 1.76 0 0 0-2.128.242 1.754 1.754 0 0 0 0 2.472c.313.325.748.508 1.202.506v-.032zM53 38l-1.598-2.377h-.577V38H50v-7h.825v3.867h.587l1.372-1.83h.969l-1.609 2.191L54 37.99zM60.917 37.999a3.328 3.328 0 0 1-1.499-.338c-1.349-.687-1.817-2.214-1.047-3.414.248-.382.61-.697 1.047-.909a3.328 3.328 0 0 1 1.5-.338 3.17 3.17 0 0 1 1.963.634l-.44.613a2.326 2.326 0 0 0-1.464-.539 2.084 2.084 0 0 0-1.392.508 1.64 1.64 0 0 0-.572 1.236 1.6 1.6 0 0 0 .572 1.247c.364.334.869.518 1.392.507a2.236 2.236 0 0 0 1.464-.539l.559.613a3.088 3.088 0 0 1-2.083.719zM65.395 33.776a1.309 1.309 0 0 0-.82.302 2.616 2.616 0 0 0-.662.786V38H63v-4.881h.913v.797A2.063 2.063 0 0 1 65.52 33c.165-.003.33.03.479.097l-.114.765a1.548 1.548 0 0 0-.49-.086zM67.849 35.771c.038.412.234.793.545 1.061.315.29.727.445 1.152.436a1.96 1.96 0 0 0 1.51-.7l.565.54a2.433 2.433 0 0 1-.901.658c-.36.159-.75.238-1.142.234a2.85 2.85 0 0 1-1.048-.202 2.334 2.334 0 0 1-.818-.53 2.603 2.603 0 0 1-.524-.807 2.652 2.652 0 0 1 0-1.963c.124-.3.301-.573.524-.807.235-.215.509-.38.807-.488.33-.145.688-.214 1.048-.201.438-.01.87.105 1.247.329.363.204.664.505.87.87.2.37.305.787.304 1.21a1.44 1.44 0 0 1 0 .37l-4.14-.01zm1.655-2.048a1.602 1.602 0 0 0-1.048.382 1.702 1.702 0 0 0-.576.966h3.144a1.661 1.661 0 0 0-.524-.966 1.509 1.509 0 0 0-.996-.382zM75.458 33a2.203 2.203 0 0 1 1.691.727v-.61H78v4.766h-.851v-.61a2.138 2.138 0 0 1-1.691.725 2.424 2.424 0 0 1-1.277-.347 2.527 2.527 0 0 1-.883-.915A2.586 2.586 0 0 1 73 35.494c-.002-.428.1-.85.298-1.23.211-.372.515-.684.883-.906.383-.235.826-.359 1.277-.357zm.138 4.21c.326.003.647-.085.925-.253a1.69 1.69 0 0 0 .628-.684v-1.557a1.595 1.595 0 0 0-.628-.695 1.662 1.662 0 0 0-.925-.263 1.772 1.772 0 0 0-1.643.83 1.73 1.73 0 0 0 0 1.824c.347.56.981.88 1.643.829v-.032zM80.67 34.029v2.4a.878.878 0 0 0 .206.653c.195.16.448.235.701.211.14.012.282.012.423 0v.693c-.164.019-.33.019-.495 0a1.816 1.816 0 0 1-1.258-.382 1.541 1.541 0 0 1-.402-1.175v-2.4H79v-.703h.845V32.07l.825-.07v1.326h1.268v.703H80.67zM83 31.596a.653.653 0 0 1 .126-.408c.084-.11.2-.17.318-.166.178-.067.369.021.476.22a.727.727 0 0 1 0 .664c-.107.199-.298.287-.476.22a.387.387 0 0 1-.318-.165.642.642 0 0 1-.126-.365zM83.11 38v-5.002h.67V38h-.67zM90 33l-2.023 5h-.954L85 33h.966l1.54 3.852L89.034 33zM90.812 35.758c.046.409.246.785.559 1.053.317.286.732.44 1.16.431.59.023 1.16-.22 1.55-.663l.58.537a2.53 2.53 0 0 1-.907.652 2.82 2.82 0 0 1-1.16.232c-.361 0-.719-.068-1.055-.2a2.352 2.352 0 0 1-.822-.526 2.399 2.399 0 0 1-.527-.8 2.594 2.594 0 0 1 0-1.947c.124-.297.303-.568.527-.8.23-.226.502-.405.801-.526.333-.142.693-.21 1.055-.2a2.437 2.437 0 0 1 2.11 1.19c.2.367.306.78.305 1.199.016.122.016.246 0 .368h-4.176zm1.677-2.03c-.386-.005-.76.13-1.055.378-.3.243-.508.58-.59.958h3.163a1.578 1.578 0 0 0-.527-.958 1.478 1.478 0 0 0-.991-.379zM99 38v-7h3.946v.788h-3.041v2.284h2.768v.81h-2.801v2.284H103v.811zM107.458 32.884a2.176 2.176 0 0 1 1.695.743V31H110v6.88h-.847v-.624c-.43.49-1.05.761-1.695.743a2.354 2.354 0 0 1-1.26-.355 2.47 2.47 0 0 1-.88-.937 2.596 2.596 0 0 1-.318-1.27 2.662 2.662 0 0 1 .318-1.271c.207-.383.51-.703.88-.926.378-.236.815-.359 1.26-.356zm.137 4.308c.325.003.645-.086.922-.259a1.82 1.82 0 0 0 .636-.7V34.64a1.713 1.713 0 0 0-.636-.711 1.716 1.716 0 0 0-2.119.248 1.83 1.83 0 0 0 0 2.53c.312.332.745.52 1.197.517v-.032zM112.019 38v-6.182H110V31h5v.818h-2.019v6.148zM115.854 35.79c.047.408.247.784.56 1.052.316.286.731.44 1.16.432a1.963 1.963 0 0 0 1.507-.695l.58.537a2.53 2.53 0 0 1-.907.652 2.82 2.82 0 0 1-1.16.232c-.36 0-.718-.068-1.054-.2a2.5 2.5 0 0 1-.833-.526 2.565 2.565 0 0 1-.707-1.779 2.511 2.511 0 0 1 .717-1.768c.23-.226.502-.405.802-.526.332-.142.692-.21 1.054-.2a2.437 2.437 0 0 1 2.11 1.19c.2.367.306.78.305 1.199.016.122.016.246 0 .368l-4.134.032zm1.677-2.031c-.386-.005-.76.13-1.055.379-.3.243-.508.58-.59.957h3.163a1.578 1.578 0 0 0-.527-.957 1.478 1.478 0 0 0-.991-.38zM123.899 37.998a3.26 3.26 0 0 1-1.484-.338c-1.346-.687-1.814-2.213-1.045-3.413.248-.382.61-.697 1.045-.908a3.26 3.26 0 0 1 1.484-.338 3.106 3.106 0 0 1 1.959.634l-.487.665a2.357 2.357 0 0 0-1.472-.539 1.964 1.964 0 0 0-1.342.486c-.759.69-.759 1.793 0 2.483a1.96 1.96 0 0 0 1.377.508c.569-.001 1.113-.207 1.508-.571l.558.613a3.079 3.079 0 0 1-2.101.718zM127.782 34.703v3.286H127V31h.782v2.793c.172-.25.384-.461.626-.624.245-.164.526-.252.811-.252a1.6 1.6 0 0 1 1.281.57c.337.389.517.915.499 1.457V38h-.773v-3.002c.015-.349-.104-.689-.325-.935a1.042 1.042 0 0 0-.838-.357 1.07 1.07 0 0 0-.724.285 2.563 2.563 0 0 0-.557.712z"/>
        </g>
    </g>
</svg>
