<svg width="71" height="60" xmlns="http://www.w3.org/2000/svg">
    <defs>
        <filter x="-31.9%" y="-41.1%" width="163.8%" height="182.2%" filterUnits="objectBoundingBox" id="a">
            <feGaussianBlur stdDeviation="5" in="SourceGraphic"/>
        </filter>
    </defs>
    <path d="M420.966 4972.478c2.449 0 4.574-.832 6.376-2.495 1.802-1.662 2.703-3.602 2.703-5.82a9.861 9.861 0 0 0-.499-3.117c-.332-1.005-.9-1.923-1.705-2.754-.84-.866-1.942-1.542-3.307-2.027-1.364-.485-3.131-.727-5.3-.727h-2.94c.35-3.603 1.645-6.669 3.884-9.197 2.24-2.53 5.336-4.746 9.29-6.652l-2.31-3.689c-5.003 2.182-9.28 5.387-12.831 9.613s-5.327 8.418-5.327 12.575c0 4.469 1.032 7.968 3.096 10.496 2.065 2.53 5.021 3.794 8.87 3.794zm25.955 0c2.449 0 4.574-.832 6.376-2.495 1.802-1.662 2.703-3.602 2.703-5.82a9.861 9.861 0 0 0-.499-3.117c-.332-1.005-.9-1.923-1.705-2.754-.84-.866-1.942-1.542-3.306-2.027-1.365-.485-3.132-.727-5.301-.727h-2.939c.35-3.603 1.644-6.669 3.884-9.197 2.239-2.53 5.335-4.746 9.289-6.652l-2.31-3.689c-5.003 2.182-9.28 5.387-12.831 9.613s-5.327 8.418-5.327 12.575c0 4.469 1.032 7.968 3.097 10.496 2.064 2.53 5.02 3.794 8.869 3.794z" filter="url(#a)" transform="translate(-397 -4925)" fill="#4BCFFA" fill-rule="nonzero"/>
</svg>
