<svg width="200" height="200" xmlns="http://www.w3.org/2000/svg">
    <defs>
        <linearGradient x1="100%" y1="50%" x2="0%" y2="50%" id="a">
            <stop stop-color="#FEDD2A" offset="0%"/>
            <stop stop-color="#FFF" offset="100%"/>
        </linearGradient>
        <filter x="-46.2%" y="-46.2%" width="192.3%" height="192.3%" filterUnits="objectBoundingBox" id="b">
            <feGaussianBlur stdDeviation="16" in="SourceGraphic"/>
        </filter>
    </defs>
    <g transform="translate(48 48)" fill="none" fill-rule="evenodd">
        <circle fill="url(#a)" opacity=".4" filter="url(#b)" transform="rotate(-90 52 52)" cx="52" cy="52" r="52"/>
        <g transform="translate(20.8 20.8)" opacity=".8">
            <circle fill="#FF9705" opacity=".5" cx="31.2" cy="31.2" r="31.2"/>
            <circle fill="#FFF" cx="31.2" cy="31.2" r="24"/>
            <path d="M39.952 39.204c-1.46 3.375-4.877 5.555-8.706 5.555-3.912 0-7.35-2.191-8.758-5.583a1.139 1.139 0 1 1 2.104-.873c1.054 2.538 3.666 4.178 6.654 4.178 2.92 0 5.517-1.64 6.615-4.181a1.139 1.139 0 1 1 2.091.904z" fill="#3A4A66"/>
            <path d="M46.263 22.556h-2.217a6.614 6.614 0 0 0-4.504-1.756 6.604 6.604 0 0 0-5.087 2.37 5.359 5.359 0 0 0-6.51 0 6.604 6.604 0 0 0-5.087-2.37 6.614 6.614 0 0 0-4.504 1.756h-2.216a.927.927 0 0 0-.938.915c0 .506.42.916.938.916h.835a6.24 6.24 0 0 0-.668 2.813c0 3.529 2.94 6.4 6.553 6.4s6.553-2.871 6.553-6.4c0-.861-.175-1.683-.493-2.434a3.439 3.439 0 0 1 4.564 0 6.236 6.236 0 0 0-.493 2.434c0 3.529 2.94 6.4 6.553 6.4 3.614 0 6.553-2.871 6.553-6.4 0-1.009-.24-1.964-.668-2.813h.836c.517 0 .937-.41.937-.916a.927.927 0 0 0-.938-.915zm-23.405 9.213c-2.58 0-4.678-2.05-4.678-4.569 0-2.52 2.098-4.569 4.678-4.569s4.678 2.05 4.678 4.569c0 2.52-2.098 4.569-4.678 4.569zm16.684 0c-2.58 0-4.678-2.05-4.678-4.569 0-2.52 2.098-4.569 4.678-4.569s4.678 2.05 4.678 4.569c0 2.52-2.098 4.569-4.678 4.569z" fill="#3A4A66" fill-rule="nonzero"/>
        </g>
    </g>
</svg>
