<svg width="131" height="149" xmlns="http://www.w3.org/2000/svg">
    <g fill="none" fill-rule="evenodd">
        <g transform="translate(33.216)">
            <circle fill="#4BCFFA" opacity=".2" cx="32.5" cy="32.5" r="32.5"/>
            <circle fill="#FFF" cx="32" cy="32" r="25"/>
            <path d="M42.103 37.875c-1.824 4.218-6.096 6.944-10.883 6.944-4.89 0-9.187-2.74-10.948-6.979a1.424 1.424 0 1 1 2.63-1.092c1.319 3.174 4.583 5.224 8.318 5.224 3.65 0 6.896-2.052 8.269-5.227a1.423 1.423 0 1 1 2.614 1.13z" fill="#3A4A66"/>
        </g>
        <g transform="translate(31.216 106)">
            <circle fill="#4BCFFA" opacity=".2" cx="21.5" cy="21.5" r="21.5"/>
            <circle fill="#FFF" cx="22" cy="22" r="15"/>
            <path d="M27.93 23.21c-1.092 2.545-3.648 4.19-6.513 4.19-2.926 0-5.498-1.653-6.552-4.211a.862.862 0 0 1 .46-1.123.85.85 0 0 1 1.114.464c.79 1.915 2.743 3.152 4.978 3.152 2.185 0 4.127-1.238 4.948-3.154a.85.85 0 0 1 1.12-.448c.433.189.632.694.445 1.13z" fill="#394965"/>
        </g>
        <g transform="translate(.216 61)">
            <circle fill="#4BCFFA" opacity=".2" cx="21" cy="21" r="21"/>
            <circle fill="#FFF" opacity=".9" cx="21" cy="21" r="15"/>
            <path d="M26.93 22.21c-1.092 2.545-3.648 4.19-6.513 4.19-2.926 0-5.498-1.653-6.552-4.211a.862.862 0 0 1 .46-1.123.85.85 0 0 1 1.114.464c.79 1.915 2.743 3.152 4.978 3.152 2.185 0 4.127-1.238 4.948-3.154a.85.85 0 0 1 1.12-.448c.433.189.632.694.445 1.13z" fill="#3A4A66"/>
        </g>
        <g transform="translate(101.216 53)">
            <circle fill="#4BCFFA" opacity=".5" cx="14.5" cy="14.5" r="14.5"/>
            <circle fill="#FFF" cx="14" cy="14" r="11"/>
            <path d="M18.947 14.896C18.12 16.782 16.183 18 14.013 18c-2.217 0-4.165-1.224-4.963-3.12a.633.633 0 0 1 .348-.831.645.645 0 0 1 .844.344c.598 1.418 2.078 2.334 3.77 2.334 1.656 0 3.127-.917 3.75-2.336a.649.649 0 0 1 .848-.332c.328.14.478.515.337.837z" fill="#3A4A66"/>
        </g>
    </g>
</svg>
