<svg id="Component_10_2" data-name="Component 10 – 2" xmlns="http://www.w3.org/2000/svg" width="58" height="40" viewBox="0 0 58 40">
  <rect id="Rectangle_6" data-name="Rectangle 6" width="58" height="40" rx="6" fill="#f4f6fa"/>
  <g id="file_copy" data-name="file copy" transform="translate(14 4.5)">
    <g id="Group_8" data-name="Group 8">
      <g id="Group_7" data-name="Group 7">
        <path id="Path_7" data-name="Path 7" d="M22.675,8.162l-5.55-6.25A1.252,1.252,0,0,0,16.2,1.5H6.2A3.163,3.163,0,0,0,3,4.625v18.75A3.163,3.163,0,0,0,6.2,26.5H19.8A3.163,3.163,0,0,0,23,23.375V9A1.25,1.25,0,0,0,22.675,8.162ZM15.5,4l4.675,5h-3.75A.988.988,0,0,1,15.5,7.937V4Z" fill="#3a4a66" opacity="0.5"/>
        <path id="Path_8" data-name="Path 8" d="M27.675,10.162l-5.55-6.25A1.252,1.252,0,0,0,21.2,3.5h-10A3.163,3.163,0,0,0,8,6.625v18.75A3.163,3.163,0,0,0,11.2,28.5H24.8A3.163,3.163,0,0,0,28,25.375V11A1.25,1.25,0,0,0,27.675,10.162ZM20.5,6l4.675,5h-3.75A.988.988,0,0,1,20.5,9.937Z" fill="#3a4a66"/>
        <rect id="Rectangle_7" data-name="Rectangle 7" width="15" height="8" rx="2" transform="translate(4 16)" fill="#fff" stroke="#3a4a66" stroke-width="1"/>
        <path id="Path_9" data-name="Path 9" d="M7.874,22V20.632h.51a1.731,1.731,0,0,0,1.092-.33,1.161,1.161,0,0,0,.426-.978,1.077,1.077,0,0,0-.417-.951,1.934,1.934,0,0,0-1.125-.291H7.052V22Zm.456-2.022H7.874V18.736h.432a1.04,1.04,0,0,1,.6.138.513.513,0,0,1,.195.45Q9.1,19.978,8.33,19.978ZM11.426,22V20.632h.51a1.731,1.731,0,0,0,1.092-.33,1.161,1.161,0,0,0,.426-.978,1.077,1.077,0,0,0-.417-.951,1.934,1.934,0,0,0-1.125-.291H10.6V22h.822Zm.456-2.022h-.456V18.736h.432a1.04,1.04,0,0,1,.6.138.513.513,0,0,1,.195.45Q12.65,19.978,11.882,19.978ZM15.752,22V18.772h1.1v-.69H13.838v.69H14.93V22h.822Z" fill="#3a4a66"/>
      </g>
    </g>
  </g>
</svg>
