<svg width="58" height="40" viewBox="0 0 58 40" xmlns="http://www.w3.org/2000/svg">
    <g fill="none" fill-rule="evenodd">
        <rect fill="#E6E8ED" opacity=".7" width="58" height="40" rx="6"/>
        <g transform="translate(14.945 4.939)">
            <path d="m18.607 8.063-1.544-6.174a1.251 1.251 0 0 0-.922-.408H6.177a3.167 3.167 0 0 0-2.239.89 3.11 3.11 0 0 0-.949 2.197V23.09c.01.829.351 1.62.95 2.198a3.167 3.167 0 0 0 2.238.89h13.551c.836.009 1.641-.31 2.24-.89a3.11 3.11 0 0 0 .948-2.198L18.931 8.89c0-.306-.116-.6-.324-.827zM15.444 3.95l4.658 4.939h-3.737a.987.987 0 0 1-.683-.333.97.97 0 0 1-.238-.717V3.951z" fill="#3A4A66" fill-rule="nonzero" opacity=".5"/>
            <path d="m27.574 10.038-5.53-6.173a1.251 1.251 0 0 0-.921-.408h-9.964a3.167 3.167 0 0 0-2.239.889 3.11 3.11 0 0 0-.95 2.198v18.52c.01.83.352 1.62.95 2.199a3.167 3.167 0 0 0 2.24.889h13.55c.836.01 1.641-.31 2.239-.89a3.11 3.11 0 0 0 .95-2.197v-14.2c-.002-.305-.117-.6-.325-.827zm-7.149-4.111 4.658 4.939h-3.736a.987.987 0 0 1-.683-.334.97.97 0 0 1-.239-.716v-3.89z" fill="#3A4A66" fill-rule="nonzero"/>
            <rect stroke="#3A4A66" fill="#FFF" x="3.985" y="15.804" width="14.945" height="7.902" rx="2"/>
            <path d="M7.845 21.731V20.38h.509c.442 0 .805-.109 1.088-.326.283-.218.424-.54.424-.966 0-.435-.139-.748-.415-.94-.277-.191-.651-.287-1.121-.287H7.026v3.87h.82zm.455-1.997h-.455v-1.227h.43c.268 0 .466.045.596.136.13.091.194.24.194.445 0 .43-.255.646-.765.646zm3.084 1.997V20.38h.509c.442 0 .805-.109 1.088-.326.283-.218.424-.54.424-.966 0-.435-.138-.748-.415-.94-.277-.191-.651-.287-1.121-.287h-1.304v3.87h.82zm.455-1.997h-.455v-1.227h.43c.268 0 .466.045.596.136.13.091.194.24.194.445 0 .43-.255.646-.765.646zm3.856 1.997v-3.189h1.094v-.681h-3.001v.681h1.088v3.189h.819z" fill="#3A4A66" fill-rule="nonzero"/>
        </g>
    </g>
</svg>
