<svg id="Component_12_1" data-name="Component 12 – 1" xmlns="http://www.w3.org/2000/svg" width="58" height="40" viewBox="0 0 58 40">
  <rect id="Rectangle_8" data-name="Rectangle 8" width="58" height="40" rx="6" fill="#f4f6fa"/>
  <g id="up_img_1_" data-name="up_img (1)" transform="translate(8.849 2.867)">
    <path id="Path_3" data-name="Path 3" d="M8.321,20.6,29.078,8.556a4.8,4.8,0,0,1,6.572,1.76L42.242,21.8a4.8,4.8,0,0,1-1.753,6.542L19.733,40.386a4.8,4.8,0,0,1-6.572-1.761L6.569,27.145A4.8,4.8,0,0,1,8.321,20.6Z" transform="translate(-5.931 -7.907)" fill="#969faf" fill-rule="evenodd" opacity="0.2"/>
    <path id="Path_4" data-name="Path 4" d="M12.846,18.529l23.11-6.221a4.8,4.8,0,0,1,5.885,3.4l3.423,12.835a4.8,4.8,0,0,1-3.39,5.872l-23.11,6.22a4.8,4.8,0,0,1-5.885-3.4L9.456,24.4a4.8,4.8,0,0,1,3.39-5.872Z" transform="translate(-5.931 -7.907)" fill="#969faf" fill-rule="evenodd"/>
    <rect id="Rectangle_5" data-name="Rectangle 5" width="33.521" height="22.891" rx="4.8" transform="translate(6.782 10.376)" fill="#f8f9fc"/>
    <path id="Path_5" data-name="Path 5" d="M38.962,25.68a3.277,3.277,0,0,0-2.54-1.023,4.37,4.37,0,0,0-2.917,1.1l.164-.89H31.416l-1.261,6.82a1.692,1.692,0,0,1-.5.081,1.376,1.376,0,0,1-1.036-.373,1.362,1.362,0,0,1-.377-.989,2.074,2.074,0,0,1,.031-.383l.96-5.215H26.955l-.014.067-1.072,5.771a3.711,3.711,0,0,1-.96.868,2.131,2.131,0,0,1-1.1.358,1.371,1.371,0,0,1-1.034-.376,1.332,1.332,0,0,1-.377-.988,1.917,1.917,0,0,1,.032-.386l.96-5.215H21.112L20.1,30.347a4.225,4.225,0,0,0-.08.825,2.7,2.7,0,0,0,.773,2.014,2.824,2.824,0,0,0,2.068.742,3.377,3.377,0,0,0,1.388-.324,4.132,4.132,0,0,0,.852-.519,9.447,9.447,0,0,0,.835-.741.945.945,0,0,1,.141-.119,2.484,2.484,0,0,0,.57.865,2.813,2.813,0,0,0,2.066.742,3.27,3.27,0,0,0,1.077-.2l-.744,4.02H31.3l.9-4.846a3.007,3.007,0,0,0,2.51,1.08,4.6,4.6,0,0,0,2.3-.61,5.754,5.754,0,0,0,1.842-1.691,5.879,5.879,0,0,0,.981-2.316,5.087,5.087,0,0,0,.089-.962,3.73,3.73,0,0,0-.967-2.627Zm-1.4,3.594a3.109,3.109,0,0,1-1.049,1.819,2.853,2.853,0,0,1-1.9.741,2.1,2.1,0,0,1-1.266-.378,1.823,1.823,0,0,1-.708-1.02l.427-2.29a3.093,3.093,0,0,1,1.084-1.027,2.85,2.85,0,0,1,1.41-.388,2,2,0,0,1,1.48.566,1.973,1.973,0,0,1,.571,1.453,2.783,2.783,0,0,1-.054.524Z" transform="translate(-5.931 -7.907)" fill="#969faf" opacity="0.696"/>
  </g>
</svg>
