<svg width="187" height="47" xmlns="http://www.w3.org/2000/svg">
    <defs>
        <linearGradient x1=".002%" y1="50.014%" x2="100.09%" y2="50.014%" id="a">
            <stop stop-color="#FB8246" offset="0%"/>
            <stop stop-color="#FEDD2A" offset="35%"/>
            <stop stop-color="#57C64C" offset="66%"/>
            <stop stop-color="#5AACFF" offset="100%"/>
        </linearGradient>
    </defs>
    <g fill-rule="nonzero" fill="none">
        <path d="m58.932 23.881 2.612-3.222a7.029 7.029 0 0 0 2.253 1.7 6.391 6.391 0 0 0 2.744.619 3.616 3.616 0 0 0 2.109-.536c.487-.3.778-.834.767-1.403a1.732 1.732 0 0 0-.755-1.463 7.032 7.032 0 0 0-2.612-.927c-4.266-.868-6.4-2.961-6.4-6.256a5.016 5.016 0 0 1 1.966-4.067 7.84 7.84 0 0 1 5.129-1.629c1.3 0 2.59.247 3.798.726a10.871 10.871 0 0 1 3.188 1.938l-2.505 3.235a6.53 6.53 0 0 0-4.026-1.749 3.17 3.17 0 0 0-1.762.44c-.427.245-.688.7-.683 1.19 0 1.13 1.043 1.914 3.128 2.378a10.09 10.09 0 0 1 5.02 2.248 5.39 5.39 0 0 1 1.63 4.043 5.372 5.372 0 0 1-2.073 4.34 8.432 8.432 0 0 1-5.524 1.69 11.979 11.979 0 0 1-4.553-.857 8.926 8.926 0 0 1-3.451-2.438zM82.682 13.975v12.69h-5.273V.001h5.273v9.3a7.073 7.073 0 0 1 2.396-1.891 6.921 6.921 0 0 1 3.044-.714A7.616 7.616 0 0 1 93.79 8.91a7.768 7.768 0 0 1 2.193 5.744v12.011h-5.189v-11.5a3.813 3.813 0 0 0-1.078-2.77 3.742 3.742 0 0 0-2.84-1.106 4.276 4.276 0 0 0-2.397.784 6.167 6.167 0 0 0-1.797 1.903zM108.361 6.697a8.628 8.628 0 0 1 6.231 2.379V7.137h5.153V26.64h-5.153v-1.926a8.616 8.616 0 0 1-6.23 2.378 9.412 9.412 0 0 1-5.034-1.38 9.866 9.866 0 0 1-3.523-3.721 10.638 10.638 0 0 1-1.258-5.102 10.638 10.638 0 0 1 1.258-5.102 9.783 9.783 0 0 1 3.523-3.699 9.424 9.424 0 0 1 5.033-1.39zm1.103 15.9a5.7 5.7 0 0 0 3.067-.856 5.45 5.45 0 0 0 2.061-2.26v-5.09a5.45 5.45 0 0 0-2.06-2.26 5.7 5.7 0 0 0-3.068-.843 5.594 5.594 0 0 0-4.045 1.614 5.508 5.508 0 0 0-1.635 4.01 5.52 5.52 0 0 0 1.617 4.046 5.606 5.606 0 0 0 4.063 1.64zM135.095 26.664l-5.14-8.527h-1.618v8.527h-5.225V.002h5.225V13.69h1.69l4.181-6.553h5.884l-5.884 8.8 6.627 10.703zM54.798 8.802a7.363 7.363 0 0 0-5.56-2.224 7.679 7.679 0 0 0-3.703.94 8.022 8.022 0 0 0-2.816 2.45 8.332 8.332 0 0 0-.923-1.19 7.363 7.363 0 0 0-5.572-2.224 7.63 7.63 0 0 0-3.69.94 7.986 7.986 0 0 0-2.577 2.248 7.525 7.525 0 0 0-.779-.976 7.41 7.41 0 0 0-5.572-2.224 7.715 7.715 0 0 0-3.702.94 7.903 7.903 0 0 0-2.888 2.51 7.071 7.071 0 0 0-2.637-2.486 7.825 7.825 0 0 0-3.75-.892 6.632 6.632 0 0 0-2.984.701 7.241 7.241 0 0 0-2.397 1.88V7.03H0v19.634h5.248V13.951a6.943 6.943 0 0 1 1.87-1.986 3.89 3.89 0 0 1 2.3-.785 3.331 3.331 0 0 1 2.589 1.095 3.918 3.918 0 0 1 .994 2.77v11.62h5.26V14.01a7.263 7.263 0 0 1 1.894-2.046 3.95 3.95 0 0 1 2.313-.785 3.307 3.307 0 0 1 2.612 1.118c.66.763 1.01 1.742.983 2.747v11.62h5.248V13.558a6.923 6.923 0 0 1 1.582-1.594 3.925 3.925 0 0 1 2.217-.785 3.283 3.283 0 0 1 2.6 1.118 3.966 3.966 0 0 1 .983 2.747v11.62h5.26V13.974a7.037 7.037 0 0 1 1.87-2.01 3.95 3.95 0 0 1 2.312-.785 3.307 3.307 0 0 1 2.612 1.118c.66.763 1.011 1.742.983 2.747v11.62h5.249V14.521a7.875 7.875 0 0 0-2.181-5.72zM26.362 5.127A2.879 2.879 0 0 1 25.476 3a2.855 2.855 0 0 1 .886-2.13 3.23 3.23 0 0 1 4.41 0A2.82 2.82 0 0 1 31.659 3a2.832 2.832 0 0 1-.887 2.128 3.23 3.23 0 0 1-4.41 0z" fill="#03657C"/>
        <path d="M184.848 8.766a7.58 7.58 0 0 0-5.74-2.235 10.136 10.136 0 0 0-6.603 2.378l.372-1.938-5.117.047-2.852 14.866a3.91 3.91 0 0 1-1.138.178 3.227 3.227 0 0 1-2.397-.82 2.914 2.914 0 0 1-.85-2.153 4.533 4.533 0 0 1 .071-.845l2.193-11.357h-5.152v.143l-2.397 12.535a8.37 8.37 0 0 1-2.217 1.89 4.903 4.903 0 0 1-2.504.785 3.214 3.214 0 0 1-2.397-.82 2.866 2.866 0 0 1-.85-2.153 4.533 4.533 0 0 1 .071-.844l2.253-11.286h-5.14l-2.29 11.892a9.338 9.338 0 0 0-.179 1.808c-.03 1.63.625 3.2 1.81 4.329a6.49 6.49 0 0 0 4.685 1.617 7.79 7.79 0 0 0 3.14-.702 9.507 9.507 0 0 0 1.929-1.13c.66-.5 1.288-1.04 1.88-1.617l.324-.261c.26.716.678 1.366 1.223 1.903a6.453 6.453 0 0 0 4.673 1.617 7.335 7.335 0 0 0 2.397-.428l-1.678 8.764h5.093l2.037-10.56a6.927 6.927 0 0 0 5.68 2.378 10.848 10.848 0 0 0 5.224-1.379 12.862 12.862 0 0 0 4.17-3.687c1.103-1.499 1.86-3.22 2.217-5.042.137-.693.205-1.398.204-2.105a7.933 7.933 0 0 0-2.145-5.768zm-3.176 7.885a6.781 6.781 0 0 1-2.396 3.972 6.523 6.523 0 0 1-4.29 1.605 4.82 4.82 0 0 1-2.876-.82 3.961 3.961 0 0 1-1.594-2.224l.959-4.983a6.881 6.881 0 0 1 2.396-2.236 6.714 6.714 0 0 1 3.2-.856 4.659 4.659 0 0 1 3.343 1.19 4.254 4.254 0 0 1 1.366 3.163c.003.399-.033.797-.108 1.189z" fill="url(#a)"/>
        <g opacity=".496" fill="#3A4A66">
            <path d="M17.447 44.526H14.56v-7.29h2.577a2.155 2.155 0 0 1 1.533.524c.382.37.587.885.564 1.415.01.334-.087.663-.276.94a1.425 1.425 0 0 1-.72.546c.398.077.755.292 1.007.607.274.336.419.757.408 1.19a2.002 2.002 0 0 1-.6 1.545 2.228 2.228 0 0 1-1.605.523zm.527-4.483a1.183 1.183 0 0 0 0-1.653 1.204 1.204 0 0 0-.838-.297h-1.558v2.247H17.1c.32.021.635-.086.874-.297zm.384 3.294a1.383 1.383 0 0 0 0-1.831 1.312 1.312 0 0 0-.935-.345h-1.845v2.521h1.821c.333.003.655-.12.899-.345h.06zM21.45 46.94l.97-2.378-2.121-5.363h.995l1.617 4.162 1.606-4.162h.995L22.444 47zM33.756 42.22h-.635l-2.301-3.354v5.66h-.959v-7.29h.923l2.648 3.901 2.66-3.9h.911v7.29h-.947v-5.661zM38.729 37.629a.557.557 0 0 1 .191-.44.626.626 0 0 1 .88.004.615.615 0 0 1 0 .872.626.626 0 0 1-.88.004.557.557 0 0 1-.191-.44zm.155 6.897V39.14h.96v5.387h-.96zM42.563 40.947v3.568h-.958v-5.376h.958v.809c.183-.271.425-.499.707-.666a1.71 1.71 0 0 1 .923-.274c.388-.003.77.1 1.102.298.314.194.564.475.72.808.209-.325.492-.598.826-.796a2.109 2.109 0 0 1 2.576.297c.39.424.597.984.576 1.558v3.353h-.947V41.22a1.385 1.385 0 0 0-.36-.975 1.13 1.13 0 0 0-.91-.38c-.308 0-.606.11-.84.309-.268.22-.495.485-.67.785.005.071.005.143 0 .214v3.353h-.959V41.22a1.432 1.432 0 0 0-.347-.975 1.203 1.203 0 0 0-.911-.38c-.306 0-.602.105-.839.297a2.68 2.68 0 0 0-.647.785zM51.143 43.753l.54-.63c.184.219.413.397.67.523.263.123.549.188.839.19.288.016.573-.059.815-.213a.688.688 0 0 0 .3-.583.712.712 0 0 0-.288-.571 2.408 2.408 0 0 0-.923-.345c-1.198-.226-1.761-.76-1.761-1.617a1.328 1.328 0 0 1 .515-1.07c.385-.3.865-.452 1.354-.429.68-.011 1.337.25 1.821.726l-.515.642a1.9 1.9 0 0 0-1.198-.547 1.205 1.205 0 0 0-.707.19.582.582 0 0 0-.288.5c.006.21.113.405.288.523.25.172.537.286.839.333.512.072.995.277 1.402.595a1.504 1.504 0 0 1-.084 2.235 2.24 2.24 0 0 1-1.474.452 3.028 3.028 0 0 1-1.198-.238 2.468 2.468 0 0 1-.947-.666zM57.518 40.947v3.568h-.947v-7.588h.947v3.033c.215-.272.48-.502.779-.678.296-.178.636-.273.982-.274a2.118 2.118 0 0 1 1.582.619c.413.422.634.994.611 1.581v3.318h-.958v-3.258a1.374 1.374 0 0 0-.396-1.01 1.384 1.384 0 0 0-1.018-.393 1.409 1.409 0 0 0-.887.309c-.274.217-.51.478-.695.773zM65.355 39.008c.73-.02 1.43.28 1.917.821v-.69h.958v5.387h-.958v-.69a2.49 2.49 0 0 1-1.917.821 2.747 2.747 0 0 1-2.397-1.427 2.814 2.814 0 0 1-.36-1.403c-.001-.49.123-.973.36-1.403a2.771 2.771 0 0 1 2.397-1.416zm.155 4.757c.368.004.73-.094 1.043-.285.304-.19.552-.457.719-.773v-1.76a1.908 1.908 0 0 0-.72-.785 1.977 1.977 0 0 0-2.396.273 1.987 1.987 0 0 0 0 2.795c.353.367.843.574 1.354.571v-.036zM73.347 44.526l-1.857-2.58h-.671v2.58h-.959v-7.599h.959v4.198h.683l1.594-1.986h1.126l-1.87 2.379 2.158 2.997zM81.148 44.657a3.062 3.062 0 0 1-1.51-.38 2.807 2.807 0 0 1-1.054-3.842 2.71 2.71 0 0 1 1.054-1.022 3.062 3.062 0 0 1 1.51-.38 2.973 2.973 0 0 1 1.977.713l-.443.69a2.201 2.201 0 0 0-1.474-.607 1.973 1.973 0 0 0-1.402.571c-.371.369-.578.87-.575 1.391a1.895 1.895 0 0 0 .575 1.403 1.9 1.9 0 0 0 1.402.571 2.117 2.117 0 0 0 1.474-.606l.563.69c-.56.538-1.317.83-2.097.808zM86.96 39.865a1.336 1.336 0 0 0-.863.333 2.858 2.858 0 0 0-.695.868v3.46h-.959V39.14h.959v.88c.364-.589.994-.966 1.69-1.01.173-.004.346.032.503.106l-.12.845a1.556 1.556 0 0 0-.515-.095zM89.105 42.124c.044.462.267.888.623 1.19.36.323.832.497 1.318.487a2.26 2.26 0 0 0 1.725-.785l.647.607a2.78 2.78 0 0 1-1.03.737 3.208 3.208 0 0 1-1.306.262c-.41-.001-.817-.078-1.198-.226a2.675 2.675 0 0 1-.935-.595 2.912 2.912 0 0 1-.6-.904 2.917 2.917 0 0 1 0-2.2c.142-.336.345-.642.6-.904.268-.24.582-.427.923-.547.377-.163.786-.24 1.198-.226.5-.01.994.118 1.426.369.414.23.758.566.994.975.23.416.35.882.348 1.356.018.138.018.278 0 .416l-4.733-.012zm1.893-2.295a1.854 1.854 0 0 0-1.198.428 1.9 1.9 0 0 0-.66 1.082h3.595c-.069-.418-.28-.8-.599-1.082a1.745 1.745 0 0 0-1.138-.428zM97.433 39.008a2.477 2.477 0 0 1 1.905.821v-.69h.959v5.387h-.959v-.69a2.405 2.405 0 0 1-1.905.821 2.724 2.724 0 0 1-1.438-.392A2.852 2.852 0 0 1 95 43.23a2.931 2.931 0 0 1-.335-1.403A3.002 3.002 0 0 1 95 40.435c.238-.42.58-.772.995-1.022.431-.266.93-.406 1.438-.405zm.156 4.757a1.908 1.908 0 0 0 1.75-1.058l-.001-1.76a1.8 1.8 0 0 0-.707-.785c-.31-.2-.673-.303-1.042-.297a1.994 1.994 0 0 0-1.851.937c-.39.633-.39 1.43 0 2.062.39.632 1.105.995 1.85.937v-.036zM103.292 39.972v2.842c-.026.279.06.557.24.773.227.188.52.278.815.25.163.014.328.014.491 0v.82a2.523 2.523 0 0 1-.575 0 2.084 2.084 0 0 1-1.462-.452 1.846 1.846 0 0 1-.467-1.391v-2.842h-.983v-.833h.983v-1.486l.958-.084v1.57h1.474v.833h-1.474zM105.965 37.629a.592.592 0 0 1 .18-.44.626.626 0 0 1 .455-.179.626.626 0 0 1 .68.238c.152.214.152.5 0 .715a.626.626 0 0 1-.68.237.626.626 0 0 1-.456-.179.593.593 0 0 1-.18-.392zm.155 6.897V39.14h.959v5.387h-.959zM113.418 39.14l-2.11 5.386h-.994l-2.109-5.387h1.007l1.606 4.15 1.593-4.15zM114.916 42.124c.053.462.28.887.635 1.19.36.323.832.497 1.318.487a2.237 2.237 0 0 0 1.761-.75l.66.607c-.284.32-.636.571-1.031.738a3.22 3.22 0 0 1-1.318.261c-.41 0-.817-.077-1.198-.226a2.675 2.675 0 0 1-.935-.594 2.71 2.71 0 0 1-.6-.904 2.917 2.917 0 0 1 0-2.2c.142-.336.345-.643.6-.904.261-.255.57-.457.91-.595a2.87 2.87 0 0 1 1.199-.226 2.772 2.772 0 0 1 2.396 1.344c.23.416.35.882.348 1.356.018.138.018.278 0 .416h-4.745zm1.905-2.295a1.83 1.83 0 0 0-1.198.428c-.34.275-.577.657-.671 1.082h3.595a1.78 1.78 0 0 0-.6-1.082 1.685 1.685 0 0 0-1.126-.428zM124.179 44.526v-7.29h4.337v.821h-3.343v2.378h3.044v.845h-3.08v2.378h3.44v.845zM132.423 39.008c.73-.02 1.43.28 1.917.821v-2.902h.959v7.6h-.959v-.69a2.49 2.49 0 0 1-1.917.82 2.756 2.756 0 0 1-2.42-1.427 2.813 2.813 0 0 1-.36-1.403c-.002-.49.122-.973.36-1.403a2.72 2.72 0 0 1 .994-1.023c.429-.26.923-.396 1.426-.393zm.156 4.757c.367.004.729-.094 1.042-.285.304-.19.552-.457.719-.773v-1.76a1.908 1.908 0 0 0-.719-.785 1.977 1.977 0 0 0-2.397.273 1.987 1.987 0 0 0 0 2.795c.353.367.843.574 1.355.571v-.036zM138.558 44.526v-6.469h-2.061v-.856h5.105v.856h-2.061v6.434zM142.656 42.124c.053.462.28.887.635 1.19.36.323.832.497 1.318.487a2.236 2.236 0 0 0 1.714-.785l.659.607c-.284.319-.636.57-1.03.737a3.22 3.22 0 0 1-1.319.262c-.41 0-.816-.077-1.198-.226a2.843 2.843 0 0 1-.947-.595 2.89 2.89 0 0 1-.803-2.01 2.824 2.824 0 0 1 .815-1.998c.262-.255.571-.457.911-.594a2.87 2.87 0 0 1 1.198-.226 2.772 2.772 0 0 1 2.397 1.344c.23.415.349.881.347 1.355.019.138.019.278 0 .416l-4.697.036zm1.905-2.295a1.83 1.83 0 0 0-1.198.428c-.34.275-.577.657-.67 1.082h3.594a1.78 1.78 0 0 0-.6-1.082 1.685 1.685 0 0 0-1.126-.428zM151.14 44.657a3.014 3.014 0 0 1-1.498-.38 2.807 2.807 0 0 1-1.054-3.842 2.71 2.71 0 0 1 1.054-1.022 3.014 3.014 0 0 1 1.498-.38c.726-.016 1.43.239 1.977.713l-.491.749a2.238 2.238 0 0 0-1.486-.607 1.865 1.865 0 0 0-1.354.547 1.987 1.987 0 0 0 0 2.795c.361.376.866.584 1.39.571.574 0 1.123-.233 1.522-.642l.563.69a2.912 2.912 0 0 1-2.121.808zM155.406 40.947v3.568h-.959v-7.588h.959v3.033c.21-.271.471-.501.767-.678.3-.179.644-.273.994-.274.588-.024 1.159.2 1.57.619.413.422.634.994.611 1.581v3.318h-.946v-3.258a1.338 1.338 0 0 0-.4-1.016 1.36 1.36 0 0 0-1.026-.387 1.409 1.409 0 0 0-.887.309 2.86 2.86 0 0 0-.683.773z"/>
        </g>
    </g>
</svg>
