<svg width="86" height="59" xmlns="http://www.w3.org/2000/svg" xmlns:xlink="http://www.w3.org/1999/xlink">
    <defs>
        <filter x="-14.2%" y="-16%" width="128.4%" height="144.7%" filterUnits="objectBoundingBox" id="a">
            <feOffset dy="3" in="SourceAlpha" result="shadowOffsetOuter1"/>
            <feGaussianBlur stdDeviation="3" in="shadowOffsetOuter1" result="shadowBlurOuter1"/>
            <feColorMatrix values="0 0 0 0 0 0 0 0 0 0 0 0 0 0 0 0 0 0 0.1 0" in="shadowBlurOuter1"/>
        </filter>
        <path d="M1071.462 177.713a12.417 12.417 0 0 0-9.435-3.7 16.597 16.597 0 0 0-10.854 3.936l.61-3.207-8.41.078-4.689 24.595c-.605.191-1.236.29-1.871.295a5.283 5.283 0 0 1-3.94-1.357 4.837 4.837 0 0 1-1.398-3.562 7.548 7.548 0 0 1 .118-1.397l3.605-18.79h-8.47v.236l-3.94 20.739a13.784 13.784 0 0 1-3.644 3.128 8.023 8.023 0 0 1-4.117 1.299 5.263 5.263 0 0 1-3.94-1.358 4.759 4.759 0 0 1-1.398-3.561 7.548 7.548 0 0 1 .118-1.397l3.703-18.673h-8.45l-3.763 19.676a15.547 15.547 0 0 0-.295 2.99 9.675 9.675 0 0 0 2.974 7.163 10.625 10.625 0 0 0 7.702 2.676 12.737 12.737 0 0 0 5.161-1.161 15.605 15.605 0 0 0 3.171-1.87 33.476 33.476 0 0 0 3.093-2.675l.532-.433a8.499 8.499 0 0 0 2.01 3.148 10.566 10.566 0 0 0 7.681 2.676 11.989 11.989 0 0 0 3.94-.708L1034.508 221h8.372l3.349-17.472a11.352 11.352 0 0 0 9.337 3.935c3.01-.02 5.966-.806 8.588-2.283a21.187 21.187 0 0 0 6.855-6.1 20.923 20.923 0 0 0 3.644-8.342c.225-1.147.337-2.313.335-3.482a13.174 13.174 0 0 0-3.526-9.543zm-5.398 13.282c-.5 2.579-1.887 4.9-3.92 6.56a10.61 10.61 0 0 1-7.017 2.651 7.828 7.828 0 0 1-4.704-1.355 6.54 6.54 0 0 1-2.607-3.673l1.568-8.23a11.3 11.3 0 0 1 3.92-3.692 10.9 10.9 0 0 1 5.234-1.414 7.576 7.576 0 0 1 5.468 1.964 7.058 7.058 0 0 1 2.234 5.225c.005.659-.054 1.316-.176 1.964z" id="b"/>
    </defs>
    <g transform="translate(-995 -171)" fill="none" fill-rule="evenodd">
        <use fill="#000" filter="url(#a)" xlink:href="#b"/>
        <use fill="#FFF" xlink:href="#b"/>
    </g>
</svg>
