<svg width="82" height="82" xmlns="http://www.w3.org/2000/svg" xmlns:xlink="http://www.w3.org/1999/xlink">
    <defs>
        <filter x="-83.3%" y="-59.5%" width="266.7%" height="266.7%" filterUnits="objectBoundingBox" id="a">
            <feOffset dy="10" in="SourceAlpha" result="shadowOffsetOuter1"/>
            <feGaussianBlur stdDeviation="10" in="shadowOffsetOuter1" result="shadowBlurOuter1"/>
            <feColorMatrix values="0 0 0 0 0 0 0 0 0 0 0 0 0 0 0 0 0 0 0.1 0" in="shadowBlurOuter1"/>
        </filter>
        <rect id="b" x="0" y="0" width="42" height="42" rx="14"/>
    </defs>
    <g fill="none" fill-rule="evenodd">
        <g transform="translate(20 10)">
            <use fill="#000" filter="url(#a)" xlink:href="#b"/>
            <use fill="#FFF" xlink:href="#b"/>
        </g>
        <path d="M48.527 32.377c-1.291 2.896-4.314 4.767-7.702 4.767-3.46 0-6.501-1.88-7.748-4.792a.967.967 0 0 1 .545-1.277 1.04 1.04 0 0 1 .386-.075c.395 0 .77.226.93.603.934 2.179 3.244 3.586 5.887 3.586 2.583 0 4.88-1.408 5.852-3.588a1.02 1.02 0 0 1 1.325-.51c.51.215.746.79.525 1.286z" fill="#3A4A66"/>
    </g>
</svg>
