<svg width="157" height="40" xmlns="http://www.w3.org/2000/svg">
    <defs>
        <linearGradient x1=".002%" y1="50.014%" x2="100.09%" y2="50.014%" id="a">
            <stop stop-color="#FB8246" offset="0%"/>
            <stop stop-color="#FEDD2A" offset="35%"/>
            <stop stop-color="#57C64C" offset="66%"/>
            <stop stop-color="#5AACFF" offset="100%"/>
        </linearGradient>
    </defs>
    <g fill-rule="nonzero" fill="none">
        <path d="m49.18 20.081 2.18-2.71a5.87 5.87 0 0 0 1.88 1.43 5.3 5.3 0 0 0 2.29.52 3 3 0 0 0 1.76-.45 1.36 1.36 0 0 0 .64-1.18 1.46 1.46 0 0 0-.63-1.23 5.84 5.84 0 0 0-2.18-.78c-3.56-.73-5.34-2.49-5.34-5.26a4.23 4.23 0 0 1 1.64-3.42 6.51 6.51 0 0 1 4.28-1.37 8.55 8.55 0 0 1 3.17.61 9.06 9.06 0 0 1 2.66 1.63l-2.09 2.72a5.43 5.43 0 0 0-3.36-1.47 2.63 2.63 0 0 0-1.47.37 1.14 1.14 0 0 0-.57 1c0 .95.87 1.61 2.61 2a8.39 8.39 0 0 1 4.19 1.89 4.55 4.55 0 0 1 1.36 3.4 4.53 4.53 0 0 1-1.73 3.65 7 7 0 0 1-4.61 1.42 9.93 9.93 0 0 1-3.8-.72 7.45 7.45 0 0 1-2.88-2.05zM69 11.751v10.67h-4.4V.001H69v7.82a5.91 5.91 0 0 1 2-1.59 5.74 5.74 0 0 1 2.54-.6 6.33 6.33 0 0 1 4.73 1.86 6.56 6.56 0 0 1 1.83 4.83v10.1h-4.33v-9.67a3.22 3.22 0 0 0-.9-2.33 3.11 3.11 0 0 0-2.37-.93 3.55 3.55 0 0 0-2 .66 5.17 5.17 0 0 0-1.5 1.6zM90.43 5.631a7.17 7.17 0 0 1 5.2 2v-1.63h4.3v16.4h-4.3v-1.62a7.16 7.16 0 0 1-5.2 2 7.81 7.81 0 0 1-4.2-1.16 8.27 8.27 0 0 1-2.94-3.13 9 9 0 0 1-1.05-4.29 9 9 0 0 1 1.05-4.29 8.2 8.2 0 0 1 2.94-3.11 7.82 7.82 0 0 1 4.2-1.17zm.92 13.37a4.73 4.73 0 0 0 2.56-.72 4.57 4.57 0 0 0 1.72-1.9v-4.28a4.57 4.57 0 0 0-1.72-1.9 4.73 4.73 0 0 0-2.56-.71 4.65 4.65 0 0 0-4.74 4.73 4.66 4.66 0 0 0 4.74 4.78zM112.74 22.421l-4.29-7.17h-1.35v7.17h-4.36V.001h4.36v11.51h1.41l3.49-5.51h4.91l-4.91 7.4 5.53 9zM45.73 7.401a6.12 6.12 0 0 0-4.64-1.87 6.37 6.37 0 0 0-3.09.79 6.71 6.71 0 0 0-2.35 2.06 7 7 0 0 0-.77-1 6.12 6.12 0 0 0-4.65-1.87 6.33 6.33 0 0 0-3.08.79A6.68 6.68 0 0 0 25 8.191a6.32 6.32 0 0 0-.65-.82 6.16 6.16 0 0 0-4.65-1.87 6.4 6.4 0 0 0-3.09.79 6.61 6.61 0 0 0-2.41 2.11 5.92 5.92 0 0 0-2.2-2.09 6.49 6.49 0 0 0-3.13-.75 5.5 5.5 0 0 0-2.49.59 6.05 6.05 0 0 0-2 1.58v-1.82H0v16.51h4.38v-10.69a5.82 5.82 0 0 1 1.56-1.67 3.23 3.23 0 0 1 1.92-.66 2.77 2.77 0 0 1 2.16.92 3.31 3.31 0 0 1 .83 2.33v9.77h4.39v-10.64a6.09 6.09 0 0 1 1.58-1.72 3.28 3.28 0 0 1 1.93-.66 2.75 2.75 0 0 1 2.18.94 3.4 3.4 0 0 1 .82 2.31v9.77h4.38V11.401a5.8 5.8 0 0 1 1.32-1.34 3.26 3.26 0 0 1 1.85-.66 2.73 2.73 0 0 1 2.17.94 3.35 3.35 0 0 1 .82 2.31v9.77h4.39V11.751a5.9 5.9 0 0 1 1.56-1.69 3.28 3.28 0 0 1 1.93-.66 2.75 2.75 0 0 1 2.18.94 3.4 3.4 0 0 1 .82 2.31v9.77h4.38v-10.21a6.65 6.65 0 0 0-1.82-4.81zM22 4.311a2.43 2.43 0 0 1-.74-1.79A2.41 2.41 0 0 1 22 .731a2.68 2.68 0 0 1 3.68 0 2.38 2.38 0 0 1 .74 1.79 2.39 2.39 0 0 1-.74 1.79 2.68 2.68 0 0 1-3.68 0z" fill="#03657C"/>
        <path d="M154.26 7.371a6.3 6.3 0 0 0-4.79-1.88 8.42 8.42 0 0 0-5.51 2l.31-1.63-4.27.04-2.38 12.5a3.24 3.24 0 0 1-.95.15 2.68 2.68 0 0 1-2-.69 2.46 2.46 0 0 1-.71-1.81 3.84 3.84 0 0 1 .06-.71l1.83-9.55h-4.3v.12l-2 10.54a7 7 0 0 1-1.85 1.59 4.07 4.07 0 0 1-2.09.66 2.67 2.67 0 0 1-2-.69 2.42 2.42 0 0 1-.71-1.81 3.84 3.84 0 0 1 .06-.71l1.88-9.49h-4.29l-1.91 10a7.91 7.91 0 0 0-.15 1.52 4.92 4.92 0 0 0 1.51 3.64 5.39 5.39 0 0 0 3.91 1.36 6.46 6.46 0 0 0 2.62-.59 7.92 7.92 0 0 0 1.61-.95 17 17 0 0 0 1.57-1.36l.27-.22a4.32 4.32 0 0 0 1.02 1.6 5.36 5.36 0 0 0 3.9 1.36 6.08 6.08 0 0 0 2-.36l-1.4 7.37h4.25l1.7-8.88a5.76 5.76 0 0 0 4.74 2 9 9 0 0 0 4.36-1.16 10.76 10.76 0 0 0 3.48-3.1 10.64 10.64 0 0 0 1.85-4.24 9.16 9.16 0 0 0 .17-1.77 6.7 6.7 0 0 0-1.79-4.85zm-2.65 6.63a5.71 5.71 0 0 1-2 3.34 5.42 5.42 0 0 1-3.58 1.35 4 4 0 0 1-2.4-.69 3.33 3.33 0 0 1-1.33-1.87l.8-4.19a5.76 5.76 0 0 1 2-1.88 5.57 5.57 0 0 1 2.67-.72 3.87 3.87 0 0 1 2.79 1 3.59 3.59 0 0 1 1.14 2.66 5.17 5.17 0 0 1-.09 1z" fill="url(#a)"/>
        <g opacity=".496" fill="#3A4A66">
            <path d="M14.56 37.441h-2.41v-6.13h2.15a1.79 1.79 0 0 1 1.28.44c.319.312.49.745.47 1.19a1.34 1.34 0 0 1-.23.79 1.19 1.19 0 0 1-.6.46c.332.065.63.246.84.51.228.283.349.637.34 1a1.69 1.69 0 0 1-.5 1.3 1.85 1.85 0 0 1-1.34.44zm.44-3.77a1 1 0 0 0 0-1.39 1 1 0 0 0-.7-.25H13v1.89h1.27a1 1 0 0 0 .73-.25zm.32 2.77a1.17 1.17 0 0 0 0-1.54 1.09 1.09 0 0 0-.78-.29H13v2.12h1.52a1.09 1.09 0 0 0 .75-.29h.05zM17.9 39.471l.81-2-1.77-4.51h.83l1.35 3.5 1.34-3.5h.83l-2.56 6.56zM28.17 35.501h-.53l-1.92-2.82v4.76h-.8v-6.13h.77l2.21 3.28 2.22-3.28h.76v6.13h-.79v-4.76zM32.32 31.641a.47.47 0 0 1 .16-.37.52.52 0 1 1 0 .74.47.47 0 0 1-.16-.37zm.13 5.8v-4.53h.8v4.53h-.8zM35.52 34.431v3h-.8v-4.52h.8v.68a1.86 1.86 0 0 1 .59-.56c.23-.149.497-.229.77-.23a1.76 1.76 0 0 1 .92.25c.262.164.47.4.6.68a2.1 2.1 0 0 1 .69-.67 1.75 1.75 0 0 1 2.15.25c.326.357.498.828.48 1.31v2.82h-.79v-2.78a1.17 1.17 0 0 0-.3-.82.94.94 0 0 0-.76-.32 1.07 1.07 0 0 0-.7.26 2.44 2.44 0 0 0-.56.66c.004.06.004.12 0 .18v2.82h-.8v-2.78a1.21 1.21 0 0 0-.29-.82 1 1 0 0 0-.76-.32 1.11 1.11 0 0 0-.7.25 2.25 2.25 0 0 0-.54.66zM42.68 36.791l.45-.53c.154.184.345.334.56.44.219.104.458.159.7.16.24.014.478-.05.68-.18a.58.58 0 0 0 .25-.49.6.6 0 0 0-.24-.48 2 2 0 0 0-.77-.29c-1-.19-1.47-.64-1.47-1.36a1.12 1.12 0 0 1 .43-.9 1.7 1.7 0 0 1 1.13-.36 2.11 2.11 0 0 1 1.52.61l-.43.54a1.58 1.58 0 0 0-1-.46 1 1 0 0 0-.59.16.49.49 0 0 0-.24.42.55.55 0 0 0 .24.44c.21.145.449.24.7.28.427.061.83.234 1.17.5a1.27 1.27 0 0 1-.07 1.88 1.86 1.86 0 0 1-1.23.38 2.51 2.51 0 0 1-1-.2 2.06 2.06 0 0 1-.79-.56zM48 34.431v3h-.79v-6.38H48v2.55c.18-.228.4-.421.65-.57.247-.15.53-.229.82-.23.493-.02.972.17 1.32.52.345.355.529.836.51 1.33v2.79h-.8v-2.74a1.16 1.16 0 0 0-.33-.85 1.15 1.15 0 0 0-.85-.33 1.17 1.17 0 0 0-.74.26 2.58 2.58 0 0 0-.58.65zM54.54 32.801a2.07 2.07 0 0 1 1.6.69v-.58h.8v4.53h-.8v-.58a2.07 2.07 0 0 1-1.6.69 2.29 2.29 0 0 1-2-1.2 2.38 2.38 0 0 1-.3-1.18 2.44 2.44 0 0 1 .3-1.18 2.31 2.31 0 0 1 2-1.19zm.13 4c.307.004.608-.08.87-.24a1.7 1.7 0 0 0 .6-.65v-1.48a1.6 1.6 0 0 0-.6-.66 1.64 1.64 0 0 0-2 .23 1.68 1.68 0 0 0 0 2.35 1.55 1.55 0 0 0 1.13.48v-.03zM61.21 37.441l-1.55-2.17h-.56v2.17h-.8v-6.39h.8v3.53h.57l1.33-1.67h.94l-1.56 2 1.8 2.52zM67.72 37.551a2.54 2.54 0 0 1-1.26-.32 2.37 2.37 0 0 1-.88-3.23 2.27 2.27 0 0 1 .88-.86 2.54 2.54 0 0 1 1.26-.32 2.47 2.47 0 0 1 1.65.6l-.37.58a1.83 1.83 0 0 0-1.23-.51 1.64 1.64 0 0 0-1.65 1.65 1.6 1.6 0 0 0 .48 1.18c.306.316.73.49 1.17.48a1.76 1.76 0 0 0 1.23-.51l.47.58a2.42 2.42 0 0 1-1.75.68zM72.57 33.521a1.11 1.11 0 0 0-.72.28 2.4 2.4 0 0 0-.58.73v2.91h-.8v-4.53h.8v.74a1.79 1.79 0 0 1 1.41-.85.93.93 0 0 1 .42.09l-.1.71a1.29 1.29 0 0 0-.43-.08zM74.36 35.421a1.5 1.5 0 0 0 .52 1c.3.272.694.42 1.1.41a1.88 1.88 0 0 0 1.44-.66l.54.51a2.32 2.32 0 0 1-.86.62 2.66 2.66 0 0 1-1.09.22 2.75 2.75 0 0 1-1-.19 2.23 2.23 0 0 1-.78-.5 2.45 2.45 0 0 1-.5-.76 2.47 2.47 0 0 1 0-1.85 2.45 2.45 0 0 1 .5-.76 2.28 2.28 0 0 1 .77-.46 2.3 2.3 0 0 1 1-.19c.418-.008.83.1 1.19.31.346.193.633.477.83.82.191.35.291.742.29 1.14a1.34 1.34 0 0 1 0 .35l-3.95-.01zm1.58-1.93a1.54 1.54 0 0 0-1 .36 1.6 1.6 0 0 0-.55.91h3a1.56 1.56 0 0 0-.5-.91 1.45 1.45 0 0 0-.95-.36zM81.31 32.801a2.06 2.06 0 0 1 1.59.69v-.58h.8v4.53h-.8v-.58a2 2 0 0 1-1.59.69 2.26 2.26 0 0 1-1.2-.33 2.39 2.39 0 0 1-.83-.87 2.48 2.48 0 0 1-.28-1.18 2.54 2.54 0 0 1 .28-1.17 2.36 2.36 0 0 1 .83-.86 2.26 2.26 0 0 1 1.2-.34zm.13 4a1.6 1.6 0 0 0 1.46-.89v-1.48a1.51 1.51 0 0 0-.59-.66 1.55 1.55 0 0 0-.87-.25 1.66 1.66 0 1 0 0 3.31v-.03zM86.2 33.611v2.39a.89.89 0 0 0 .2.65.92.92 0 0 0 .68.21c.136.012.274.012.41 0v.69a2.09 2.09 0 0 1-.48 0 1.73 1.73 0 0 1-1.22-.38 1.56 1.56 0 0 1-.39-1.17v-2.39h-.82v-.7h.82v-1.25l.8-.07v1.32h1.23v.7H86.2zM88.43 31.641a.5.5 0 0 1 .15-.37.52.52 0 0 1 .38-.15.52.52 0 1 1 0 1 .52.52 0 0 1-.38-.15.5.5 0 0 1-.15-.33zm.13 5.8v-4.53h.8v4.53h-.8zM94.65 32.911l-1.76 4.53h-.83l-1.76-4.53h.84l1.34 3.49 1.33-3.49zM95.9 35.421c.044.389.234.746.53 1 .3.272.694.42 1.1.41.56.023 1.1-.209 1.47-.63l.55.51a2.4 2.4 0 0 1-.86.62 2.67 2.67 0 0 1-1.1.22 2.74 2.74 0 0 1-1-.19 2.23 2.23 0 0 1-.78-.5 2.28 2.28 0 0 1-.5-.76 2.47 2.47 0 0 1 0-1.85 2.45 2.45 0 0 1 .5-.76 2.34 2.34 0 0 1 .76-.5 2.38 2.38 0 0 1 1-.19 2.31 2.31 0 0 1 2 1.13c.191.35.291.742.29 1.14a1.34 1.34 0 0 1 0 .35H95.9zm1.59-1.93a1.52 1.52 0 0 0-1 .36 1.62 1.62 0 0 0-.56.91h3a1.5 1.5 0 0 0-.5-.91 1.4 1.4 0 0 0-.94-.36zM103.63 37.441v-6.13h3.62v.69h-2.79v2H107v.71h-2.57v2h2.87v.71zM110.51 32.801a2.07 2.07 0 0 1 1.6.69v-2.44h.8v6.39h-.8v-.58a2.07 2.07 0 0 1-1.6.69 2.25 2.25 0 0 1-1.19-.33 2.31 2.31 0 0 1-.83-.87 2.38 2.38 0 0 1-.3-1.18 2.44 2.44 0 0 1 .3-1.18 2.28 2.28 0 0 1 .83-.86 2.25 2.25 0 0 1 1.19-.33zm.13 4c.307.004.608-.08.87-.24a1.7 1.7 0 0 0 .6-.65v-1.48a1.6 1.6 0 0 0-.6-.66 1.64 1.64 0 0 0-2 .23 1.68 1.68 0 0 0 0 2.35 1.55 1.55 0 0 0 1.13.48v-.03zM115.63 37.441v-5.44h-1.72v-.72h4.26v.72h-1.72v5.41zM119.05 35.421c.044.389.234.746.53 1 .3.272.694.42 1.1.41a1.86 1.86 0 0 0 1.43-.66l.55.51a2.4 2.4 0 0 1-.86.62 2.67 2.67 0 0 1-1.1.22 2.74 2.74 0 0 1-1-.19 2.37 2.37 0 0 1-.79-.5 2.44 2.44 0 0 1-.67-1.69 2.39 2.39 0 0 1 .68-1.68 2.34 2.34 0 0 1 .76-.5 2.38 2.38 0 0 1 1-.19 2.31 2.31 0 0 1 2 1.13c.191.35.291.742.29 1.14a1.34 1.34 0 0 1 0 .35l-3.92.03zm1.59-1.93a1.52 1.52 0 0 0-1 .36 1.62 1.62 0 0 0-.56.91h3a1.5 1.5 0 0 0-.5-.91 1.4 1.4 0 0 0-.94-.36zM126.13 37.551a2.5 2.5 0 0 1-1.25-.32 2.37 2.37 0 0 1-.88-3.23 2.27 2.27 0 0 1 .88-.86 2.5 2.5 0 0 1 1.25-.32 2.43 2.43 0 0 1 1.65.6l-.41.63a1.86 1.86 0 0 0-1.24-.51 1.55 1.55 0 0 0-1.13.46 1.68 1.68 0 0 0 0 2.35c.302.317.723.491 1.16.48a1.77 1.77 0 0 0 1.27-.54l.47.58a2.42 2.42 0 0 1-1.77.68zM129.69 34.431v3h-.8v-6.38h.8v2.55a2.32 2.32 0 0 1 .64-.57c.25-.15.538-.23.83-.23.49-.02.967.169 1.31.52.345.355.529.836.51 1.33v2.79h-.79v-2.74a1.13 1.13 0 0 0-1.19-1.18 1.17 1.17 0 0 0-.74.26 2.4 2.4 0 0 0-.57.65z"/>
        </g>
    </g>
</svg>
