<svg width="100" height="19" xmlns="http://www.w3.org/2000/svg">
    <defs>
        <linearGradient x1="-.012%" y1="50.111%" x2="99.991%" y2="50.111%" id="a">
            <stop stop-color="#FF9705" offset="0%"/>
            <stop stop-color="#FEDD2A" offset="35%"/>
            <stop stop-color="#0EE881" offset="66%"/>
            <stop stop-color="#4BCFFA" offset="100%"/>
        </linearGradient>
    </defs>
    <g fill-rule="nonzero" fill="none">
        <path d="m31.504 13.016 1.401-1.761c.334.387.743.702 1.201.924.453.223.948.34 1.451.341.398.022.793-.08 1.132-.294a.883.883 0 0 0 .412-.769.958.958 0 0 0-.403-.796 3.744 3.744 0 0 0-1.402-.507c-2.27-.466-3.406-1.6-3.406-3.4a2.775 2.775 0 0 1 1.05-2.229 4.157 4.157 0 0 1 2.745-.88 5.339 5.339 0 0 1 2.031.396c.624.247 1.2.603 1.703 1.05l-1.34 1.762c-.763-.64-1.48-.957-2.15-.957a1.7 1.7 0 0 0-.943.24.739.739 0 0 0-.366.644c0 .617.557 1.04 1.674 1.274 1.211.247 2.106.654 2.684 1.222.585.579.901 1.38.87 2.208a2.95 2.95 0 0 1-1.108 2.348c-.734.617-1.72.925-2.95.925a6.292 6.292 0 0 1-2.435-.467 4.896 4.896 0 0 1-1.851-1.274zM44.175 7.617v6.92h-2.791V0h2.791v5.068a3.99 3.99 0 0 1 1.326-1.03 3.673 3.673 0 0 1 1.628-.385 4.037 4.037 0 0 1 3.03 1.2 4.298 4.298 0 0 1 1.16 3.134v6.55h-2.791V8.263a2.122 2.122 0 0 0-.58-1.51c-.399-.41-.95-.63-1.518-.604-.457.01-.9.16-1.271.431-.396.273-.73.626-.984 1.037zM57.935 3.653a4.541 4.541 0 0 1 3.328 1.315V3.9h2.76v10.637h-2.76v-1.069a4.553 4.553 0 0 1-3.328 1.316c-.949.01-1.882-.251-2.69-.755A5.21 5.21 0 0 1 53.362 12a5.851 5.851 0 0 1-.673-2.783c-.01-.97.222-1.925.673-2.78a5.231 5.231 0 0 1 1.883-2.032 4.976 4.976 0 0 1 2.69-.752zm.58 8.635a3.014 3.014 0 0 0 1.64-.46c.477-.296.86-.725 1.103-1.234V7.843a2.924 2.924 0 0 0-1.103-1.233 3.04 3.04 0 0 0-1.64-.461 2.962 2.962 0 0 0-2.16.882 3.034 3.034 0 0 0-.872 2.186c-.015.818.3 1.608.871 2.187.572.58 1.352.899 2.161.884zM72.226 14.537l-2.748-4.65h-.87v4.65h-2.789V0h2.788v7.464h.903L71.712 3.9h3.152l-3.085 4.785 3.543 5.852zM29.307 4.798a3.908 3.908 0 0 0-2.974-1.213 4.077 4.077 0 0 0-1.988.526A4.232 4.232 0 0 0 22.84 5.45a4.105 4.105 0 0 0-.496-.652 3.91 3.91 0 0 0-2.977-1.213 4.091 4.091 0 0 0-1.976.526 4.317 4.317 0 0 0-1.405 1.21v.023a4.267 4.267 0 0 0-.42-.531A3.91 3.91 0 0 0 12.588 3.6c-.692 0-1.373.175-1.98.511a4.276 4.276 0 0 0-1.511 1.348 3.79 3.79 0 0 0-1.434-1.35 4.107 4.107 0 0 0-2.005-.488 3.449 3.449 0 0 0-1.596.381A3.816 3.816 0 0 0 2.81 5.024V3.85H0v10.687h2.809V7.605c.256-.425.595-.793.995-1.083.355-.271.786-.42 1.23-.426a1.769 1.769 0 0 1 1.387.587c.368.417.562.96.543 1.518v6.336h2.809v-6.2c0-.165 0-.397-.02-.703a3.78 3.78 0 0 1 1.01-1.11c.356-.272.789-.422 1.235-.428.531-.02 1.043.201 1.393.605.355.415.543.95.525 1.5v6.336h2.798v-6.61c0-.178 0-.354-.023-.525a3.65 3.65 0 0 1 .844-.863 2.07 2.07 0 0 1 1.233-.429 1.766 1.766 0 0 1 1.396.605c.354.417.541.952.525 1.5v6.322h2.815V7.634c.258-.428.599-.8 1-1.095a2.082 2.082 0 0 1 1.234-.429 1.76 1.76 0 0 1 1.396.605c.355.416.542.952.525 1.5v6.322h2.809v-6.61a4.354 4.354 0 0 0-1.161-3.129zM14.117 2.793a1.574 1.574 0 0 1-.48-1.16 1.574 1.574 0 0 1 .477-1.16 1.703 1.703 0 0 1 2.356 0c.312.303.484.723.476 1.16.012.442-.16.868-.476 1.174-.662.631-1.695.631-2.356 0l.003-.014z" fill="#03657C"/>
        <path d="M98.829 4.777a4.002 4.002 0 0 0-3.073-1.215 5.342 5.342 0 0 0-3.529 1.31l.198-1.058H89.7l-1.526 8.101a2.058 2.058 0 0 1-.61.097c-.46.031-.912-.13-1.253-.443a1.602 1.602 0 0 1-.456-1.175 2.42 2.42 0 0 1 .038-.455l1.16-6.195h-2.75l-.018.08-1.297 6.855c-.324.41-.717.758-1.16 1.03-.4.262-.86.41-1.335.426-.46.03-.912-.13-1.25-.446a1.566 1.566 0 0 1-.456-1.174 2.23 2.23 0 0 1 .037-.458l1.161-6.196h-2.75l-1.22 6.46a4.927 4.927 0 0 0-.095.98c-.04.896.3 1.767.934 2.393a3.457 3.457 0 0 0 2.501.881c.58-.009 1.153-.14 1.68-.384.367-.164.713-.37 1.03-.617.354-.273.691-.567 1.01-.88.053-.053.11-.1.171-.142.156.389.391.74.691 1.028a3.431 3.431 0 0 0 2.498.88 4.02 4.02 0 0 0 1.303-.237l-.9 4.777h2.725l1.089-5.758c.705.86 1.714 1.292 3.038 1.283a5.644 5.644 0 0 0 2.785-.725 6.916 6.916 0 0 0 2.229-2.008A6.918 6.918 0 0 0 99.89 9.04c.073-.376.109-.759.107-1.142a4.384 4.384 0 0 0-1.17-3.122zm-1.7 4.27a3.679 3.679 0 0 1-1.269 2.16 3.487 3.487 0 0 1-2.295.881 2.59 2.59 0 0 1-1.532-.449 2.166 2.166 0 0 1-.856-1.212l.516-2.72c.332-.509.783-.928 1.312-1.22a3.497 3.497 0 0 1 1.706-.462 2.453 2.453 0 0 1 1.79.673 2.33 2.33 0 0 1 .691 1.726c-.001.21-.023.418-.064.623z" fill="url(#a)"/>
    </g>
</svg>
