<svg width="150" height="28" xmlns="http://www.w3.org/2000/svg">
    <defs>
        <linearGradient x1=".002%" y1="50.014%" x2="100.09%" y2="50.014%" id="a">
            <stop stop-color="#FB8246" offset="0%"/>
            <stop stop-color="#FEDD2A" offset="35%"/>
            <stop stop-color="#57C64C" offset="66%"/>
            <stop stop-color="#5AACFF" offset="100%"/>
        </linearGradient>
    </defs>
    <g fill-rule="nonzero" fill="none">
        <path d="m47.271 19.144 2.096-2.584a5.638 5.638 0 0 0 1.807 1.364 5.13 5.13 0 0 0 2.201.495 2.902 2.902 0 0 0 1.692-.429c.39-.241.624-.668.615-1.125a1.388 1.388 0 0 0-.606-1.172 5.643 5.643 0 0 0-2.095-.744c-3.422-.696-5.133-2.373-5.133-5.014a4.02 4.02 0 0 1 1.577-3.26 6.292 6.292 0 0 1 4.113-1.306c1.044 0 2.078.197 3.047.581a8.721 8.721 0 0 1 2.557 1.554l-2.009 2.593a5.24 5.24 0 0 0-3.23-1.401c-.495-.023-.986.1-1.412.352-.343.197-.553.561-.548.954 0 .905.836 1.534 2.509 1.906a8.096 8.096 0 0 1 4.027 1.802 4.319 4.319 0 0 1 1.307 3.241 4.305 4.305 0 0 1-1.663 3.48 6.767 6.767 0 0 1-4.43 1.353 9.614 9.614 0 0 1-3.653-.686 7.16 7.16 0 0 1-2.769-1.954zM66.322 11.203v10.172h-4.229V0h4.23v7.455a5.673 5.673 0 0 1 1.922-1.516 5.555 5.555 0 0 1 2.441-.571 6.111 6.111 0 0 1 4.547 1.773 6.225 6.225 0 0 1 1.759 4.604v9.629H72.83v-9.219a3.056 3.056 0 0 0-.865-2.221 3.003 3.003 0 0 0-2.279-.887c-.69.012-1.36.232-1.922.63-.585.4-1.077.92-1.442 1.525zM86.92 5.369a6.924 6.924 0 0 1 4.999 1.906V5.721h4.133v15.634h-4.133v-1.544a6.914 6.914 0 0 1-4.998 1.907 7.554 7.554 0 0 1-4.037-1.106 7.91 7.91 0 0 1-2.826-2.984 8.523 8.523 0 0 1-1.01-4.09 8.523 8.523 0 0 1 1.01-4.09 7.844 7.844 0 0 1 2.826-2.964 7.563 7.563 0 0 1 4.037-1.115zm.885 12.745c.87.01 1.723-.229 2.46-.686a4.37 4.37 0 0 0 1.654-1.811v-4.08a4.37 4.37 0 0 0-1.653-1.812 4.575 4.575 0 0 0-2.461-.677 4.489 4.489 0 0 0-3.244 1.294 4.414 4.414 0 0 0-1.312 3.215 4.423 4.423 0 0 0 1.297 3.244 4.498 4.498 0 0 0 3.259 1.313zM108.365 21.375l-4.124-6.836h-1.297v6.836h-4.191V0h4.19v10.973h1.356l3.355-5.253h4.72l-4.72 7.055 5.315 8.58zM43.955 7.056a5.908 5.908 0 0 0-4.46-1.783 6.163 6.163 0 0 0-2.97.753 6.434 6.434 0 0 0-2.258 1.964 6.68 6.68 0 0 0-.74-.953 5.908 5.908 0 0 0-4.47-1.783 6.124 6.124 0 0 0-2.96.753A6.405 6.405 0 0 0 24.03 7.81a6.033 6.033 0 0 0-.625-.782 5.947 5.947 0 0 0-4.47-1.782 6.192 6.192 0 0 0-2.97.753 6.338 6.338 0 0 0-2.316 2.011 5.67 5.67 0 0 0-2.115-1.992 6.28 6.28 0 0 0-3.008-.715 5.322 5.322 0 0 0-2.394.562A5.808 5.808 0 0 0 4.21 7.37V5.635H0v15.74h4.21V11.184a5.567 5.567 0 0 1 1.5-1.592 3.121 3.121 0 0 1 1.845-.63 2.673 2.673 0 0 1 2.076.878 3.14 3.14 0 0 1 .798 2.22v9.315h4.22V11.23a5.824 5.824 0 0 1 1.518-1.64 3.17 3.17 0 0 1 1.855-.629c.8-.03 1.57.299 2.096.897.53.61.81 1.396.788 2.202v9.314h4.21V10.869c.35-.491.779-.923 1.269-1.277a3.15 3.15 0 0 1 1.778-.63 2.634 2.634 0 0 1 2.086.897c.534.609.815 1.395.788 2.202v9.314h4.22V11.203a5.643 5.643 0 0 1 1.499-1.611 3.17 3.17 0 0 1 1.855-.63c.8-.03 1.57.299 2.096.897.53.61.81 1.396.788 2.202v9.314h4.21V11.64a6.31 6.31 0 0 0-1.75-4.585zM21.146 4.11a2.307 2.307 0 0 1-.711-1.706 2.288 2.288 0 0 1 .711-1.707 2.592 2.592 0 0 1 3.537 0 2.26 2.26 0 0 1 .712 1.707 2.27 2.27 0 0 1-.712 1.706c-.992.93-2.544.93-3.537 0z" fill="#03657C"/>
        <path d="M148.274 7.027a6.082 6.082 0 0 0-4.604-1.792 8.134 8.134 0 0 0-5.297 1.907l.298-1.554-4.104.038-2.288 11.916c-.295.093-.603.14-.913.143a2.59 2.59 0 0 1-1.922-.658 2.335 2.335 0 0 1-.683-1.725 3.631 3.631 0 0 1 .058-.677l1.76-9.104h-4.134v.114l-1.922 10.048a6.713 6.713 0 0 1-1.779 1.516 3.935 3.935 0 0 1-2.009.63 2.58 2.58 0 0 1-1.922-.659 2.297 2.297 0 0 1-.682-1.725 3.631 3.631 0 0 1 .057-.677l1.807-9.047h-4.123l-1.836 9.533a7.48 7.48 0 0 0-.144 1.45 4.671 4.671 0 0 0 1.451 3.47 5.207 5.207 0 0 0 3.758 1.296 6.252 6.252 0 0 0 2.519-.563c.55-.24 1.07-.544 1.547-.905.53-.401 1.033-.834 1.51-1.297l.259-.21c.209.575.544 1.096.98 1.526a5.178 5.178 0 0 0 3.749 1.296 5.887 5.887 0 0 0 1.922-.343L130.242 28h4.085l1.634-8.465a5.558 5.558 0 0 0 4.556 1.906 8.706 8.706 0 0 0 4.19-1.106c1.32-.73 2.462-1.74 3.346-2.955a10.101 10.101 0 0 0 1.778-4.042c.11-.556.164-1.12.163-1.687a6.357 6.357 0 0 0-1.72-4.624zm-2.548 6.32a5.436 5.436 0 0 1-1.922 3.185 5.235 5.235 0 0 1-3.441 1.287c-.82.03-1.628-.2-2.307-.658a3.175 3.175 0 0 1-1.278-1.783l.769-3.994a5.518 5.518 0 0 1 1.922-1.792 5.388 5.388 0 0 1 2.566-.687 3.738 3.738 0 0 1 2.682.954 3.41 3.41 0 0 1 1.096 2.535c.002.32-.027.64-.087.954z" fill="url(#a)"/>
    </g>
</svg>
