<svg width="446" height="298" xmlns="http://www.w3.org/2000/svg" xmlns:xlink="http://www.w3.org/1999/xlink">
    <defs>
        <filter x="-8.6%" y="-9.7%" width="117.2%" height="127.1%" filterUnits="objectBoundingBox" id="a">
            <feOffset dy="10" in="SourceAlpha" result="shadowOffsetOuter1"/>
            <feGaussianBlur stdDeviation="10" in="shadowOffsetOuter1" result="shadowBlurOuter1"/>
            <feColorMatrix values="0 0 0 0 0 0 0 0 0 0 0 0 0 0 0 0 0 0 0.1 0" in="shadowBlurOuter1"/>
        </filter>
        <path d="M568.59 653.38a68.108 68.108 0 0 0-51.768-20.306 91.03 91.03 0 0 0-59.549 21.602l3.35-17.605-46.147.432-25.721 135.011a35.035 35.035 0 0 1-10.267 1.62 28.974 28.974 0 0 1-21.615-7.452 26.562 26.562 0 0 1-7.673-19.55c-.023-2.57.194-5.138.648-7.669l19.777-103.149h-46.471v1.297l-21.615 113.841a75.64 75.64 0 0 1-19.994 17.174 44.004 44.004 0 0 1-22.587 7.128 28.866 28.866 0 0 1-21.615-7.452 26.13 26.13 0 0 1-7.673-19.55c-.022-2.57.195-5.138.648-7.669l20.318-102.5h-46.363L183.63 746.592a85.386 85.386 0 0 0-1.622 16.417 53.125 53.125 0 0 0 16.32 39.316 58.273 58.273 0 0 0 42.256 14.689 69.85 69.85 0 0 0 28.316-6.373 85.606 85.606 0 0 0 17.4-10.26 183.694 183.694 0 0 0 16.967-14.69l2.918-2.376a46.657 46.657 0 0 0 11.024 17.281 57.949 57.949 0 0 0 42.148 14.69 65.744 65.744 0 0 0 21.615-3.889L365.843 891h45.931l18.373-95.912a62.268 62.268 0 0 0 51.227 21.602 97.311 97.311 0 0 0 47.12-12.53 116.264 116.264 0 0 0 37.61-33.482 114.887 114.887 0 0 0 19.993-45.796 98.88 98.88 0 0 0 1.837-19.118 72.34 72.34 0 0 0-19.345-52.384zm-28.559 72.968a61.683 61.683 0 0 1-21.489 36.05 58.082 58.082 0 0 1-38.465 14.572 42.836 42.836 0 0 1-25.787-7.448A35.938 35.938 0 0 1 440 749.338l8.596-45.225a62.005 62.005 0 0 1 21.489-20.292 59.637 59.637 0 0 1 28.687-7.771 41.468 41.468 0 0 1 29.977 10.793A38.833 38.833 0 0 1 541 715.554a56.05 56.05 0 0 1-.968 10.794z" id="b"/>
    </defs>
    <g transform="translate(-162 -623)" fill="none" fill-rule="evenodd">
        <use fill="#000" filter="url(#a)" xlink:href="#b"/>
        <use fill="#FFF" xlink:href="#b"/>
    </g>
</svg>
