<svg width="79" height="78" xmlns="http://www.w3.org/2000/svg">
    <g transform="translate(.216)" fill="none" fill-rule="evenodd">
        <circle fill="#FF9705" opacity=".201" cx="39" cy="39" r="39"/>
        <circle fill="#FFF" cx="39" cy="39" r="30"/>
        <path d="M49.94 49.005c-1.824 4.218-6.096 6.944-10.883 6.944-4.89 0-9.187-2.74-10.948-6.98a1.424 1.424 0 1 1 2.63-1.09c1.319 3.173 4.584 5.222 8.318 5.222 3.65 0 6.896-2.05 8.269-5.226a1.423 1.423 0 1 1 2.614 1.13z" fill="#3A4A66"/>
        <path d="M57.828 28.195h-2.77A8.267 8.267 0 0 0 49.428 26a8.255 8.255 0 0 0-6.36 2.963c-2.371-1.835-5.76-1.838-8.137 0A8.254 8.254 0 0 0 28.572 26a8.268 8.268 0 0 0-5.63 2.195h-2.77c-.647 0-1.172.512-1.172 1.144 0 .632.525 1.144 1.172 1.144h1.044A7.8 7.8 0 0 0 20.38 34c0 4.411 3.675 8 8.191 8 4.517 0 8.192-3.589 8.192-8 0-1.077-.22-2.104-.616-3.043 1.607-1.442 4.095-1.444 5.704 0A7.795 7.795 0 0 0 41.236 34c0 4.411 3.675 8 8.192 8s8.191-3.589 8.191-8c0-1.261-.3-2.455-.835-3.517h1.044c.647 0 1.172-.512 1.172-1.144 0-.632-.525-1.144-1.172-1.144zM28.572 39.71c-3.224 0-5.847-2.562-5.847-5.711 0-3.15 2.623-5.711 5.847-5.711 3.225 0 5.848 2.562 5.848 5.711 0 3.15-2.623 5.711-5.848 5.711zm20.856 0c-3.225 0-5.848-2.562-5.848-5.711 0-3.15 2.623-5.711 5.848-5.711 3.224 0 5.847 2.562 5.847 5.711 0 3.15-2.623 5.711-5.847 5.711z" fill="#3A4A66" fill-rule="nonzero"/>
    </g>
</svg>
