<svg id="blue_smile" xmlns="http://www.w3.org/2000/svg" width="62" height="62" viewBox="0 0 62 62">
  <circle id="Ellipse_7" data-name="Ellipse 7" cx="31" cy="31" r="31" fill="#0af" opacity="0.2"/>
  <circle id="Ellipse_8" data-name="Ellipse 8" cx="26.829" cy="26.829" r="26.829" transform="translate(3.708 3.708)" fill="#fff"/>
  <path id="Path_15" data-name="Path 15" d="M24.955,21.636a6.928,6.928,0,0,1-12.842-.022.9.9,0,0,1,.453-1.156.8.8,0,0,1,.32-.068.838.838,0,0,1,.774.546,5.289,5.289,0,0,0,9.758,0,.819.819,0,0,1,1.1-.461A.9.9,0,0,1,24.955,21.636Z" transform="translate(11.555 15.086)" fill="#3a4a66" fill-rule="evenodd"/>
</svg>
